<svg width="500" height="500" viewBox="0 0 500 500" fill="none" xmlns="http://www.w3.org/2000/svg">
<path d="M312.593 432.842C311.374 432.842 310.209 432.265 309.478 431.254L308.739 430.231C307.336 428.181 307.647 426.396 307.955 425.508C308.939 422.661 311.901 421.723 314.766 420.823C315.751 420.511 317.401 419.992 317.843 419.65C318.82 418.819 319.897 418.085 320.986 417.361C323.336 415.788 325.274 413.954 327.047 412.185C327.751 411.473 328.551 410.815 329.351 410.165C329.351 410.165 330.397 409.308 330.62 409.138L333.351 406.311L335.501 404.035L337.093 402.381C338.236 401.204 339.382 400.035 340.436 398.777C342.866 395.958 345.37 392.915 347.916 389.692C348.805 388.592 349.547 387.446 350.301 386.296L351.632 384.3C351.893 383.9 352.155 383.508 352.455 383.111C353.951 381.031 355.116 379.173 356.078 377.327C357.486 374.719 359.066 372.308 360.597 369.973L361.939 367.923C363.005 366.258 364.12 364.465 364.897 362.631C365.316 361.619 365.859 360.642 366.409 359.665C366.77 359.031 367.136 358.396 367.436 357.731C368.189 356.077 368.886 354.404 369.582 352.735L370.686 350.104C370.786 349.815 371.009 349.177 371.489 348.527C373.289 345.627 374.586 342.054 375.959 338.265L376.839 335.831C378.436 331.435 379.947 327.285 380.789 322.919C381.31 320.142 382.138 317.432 383.259 314.838C383.547 314.15 383.736 313.188 383.936 312.165L384.916 307.461C385.828 303.131 386.739 298.8 387.566 294.446C388.059 291.827 388.474 289.05 388.874 285.704C389.051 284.273 389.151 282.842 389.259 281.411L389.528 277.904C389.693 275.719 389.855 273.55 390.059 271.369C390.124 270.535 390.182 269.615 390.236 268.681C390.339 267.023 390.443 265.335 390.616 263.761C390.755 262.323 390.966 260.111 392.989 258.715C394.132 258 395.232 257.692 396.42 257.692C396.909 257.692 397.428 257.746 397.986 257.846C399.459 258.096 401.851 258.654 403.509 259.211C405.578 259.946 407.605 260.665 409.539 261.496C414.193 263.515 418.516 266.096 422.774 269.385C423.182 269.7 423.559 270.012 423.993 270.258C424.128 270.331 424.255 270.415 424.382 270.504C425.486 271.3 426.493 272.281 427.57 273.311L428.843 274.527C429.301 274.861 430.147 275.554 430.905 276.45C431.428 277.061 432.82 278.827 433.336 279.608C433.451 279.777 433.624 280.008 433.809 280.246C434.243 280.831 434.705 281.461 435.074 282.077C435.501 282.788 435.889 283.535 436.266 284.277C436.686 285.092 437.086 285.904 437.578 286.596C438.659 288.131 438.893 289.908 438.289 291.896C436.559 297.927 433.324 309.585 433.324 309.585L430.543 318.527C430.497 318.665 430.451 318.804 430.389 318.935L427.859 324.692L423.132 334.323L420.309 339.635L415.528 349.112L413.328 352.773L405.993 363.342L402.116 368.138L401.024 369.642L397.555 374.292L391.078 381.761L385.389 387.246L380.878 392.1L377.843 395.104L374.993 397.781C374.877 397.886 374.756 397.986 374.632 398.081L368.42 402.665L363.743 406.05L360.651 408.504L353.87 413.288L349.951 415.854L346.755 417.623L344.436 419.054L343.078 419.985C342.882 420.115 342.674 420.235 342.462 420.327L341.193 420.888C341.189 420.9 339.416 421.835 339.101 422.011L339.078 421.969C337.912 422.608 334.747 424.115 324.789 428.865L318.924 431.161L317.066 431.961C316.813 432.077 316.539 432.158 316.266 432.211L313.312 432.773C313.076 432.819 312.835 432.842 312.593 432.842Z" fill="#CE1141"/>
<path d="M396.424 253.846C394.517 253.846 392.74 254.342 391.147 255.323C391.034 255.393 390.923 255.464 390.813 255.538C387.305 257.958 386.947 261.738 386.817 263.161L386.794 263.388C386.62 264.977 386.509 266.723 386.405 268.446C386.347 269.35 386.29 270.254 386.224 271.119C386.028 273.211 385.867 275.4 385.701 277.6L385.613 278.727C385.543 279.548 385.48 280.37 385.424 281.192C385.32 282.542 385.228 283.892 385.063 285.227C384.67 288.508 384.267 291.204 383.79 293.731C382.974 298.042 382.047 302.446 381.147 306.704L380.405 310.242C380.324 310.608 380.247 311.008 380.167 311.415C380.009 312.208 379.847 313.031 379.686 313.427C378.505 316.154 377.586 319.154 377.009 322.227C376.232 326.261 374.767 330.281 373.22 334.535L372.59 336.277L372.347 336.938C371.063 340.485 369.851 343.835 368.14 346.615C367.54 347.523 367.228 348.354 367.074 348.781C366.728 349.592 366.39 350.404 366.051 351.219C365.367 352.861 364.682 354.504 363.947 356.119C363.678 356.708 363.367 357.242 363.063 357.773C362.513 358.75 361.89 359.854 361.344 361.158C360.694 362.692 359.678 364.327 358.694 365.861L357.428 367.796C355.836 370.219 354.194 372.723 352.72 375.461C351.797 377.219 350.724 378.927 349.29 380.923C349.036 381.261 348.74 381.704 348.444 382.146L348.136 382.604C347.751 383.177 347.42 383.681 347.094 384.181C346.355 385.304 345.663 386.361 344.963 387.227C342.397 390.477 339.932 393.477 337.559 396.223C336.567 397.4 335.501 398.5 334.37 399.665C333.813 400.242 333.251 400.819 332.705 401.4L330.378 403.858L328.259 406.1C327.982 406.315 327.763 406.492 327.567 406.661L326.94 407.177C326.14 407.823 325.228 408.561 324.324 409.469C322.705 411.085 320.94 412.758 319.032 414.035L318.782 414.204C317.82 414.846 316.751 415.565 315.674 416.446C315.209 416.646 314.267 416.946 313.613 417.15C310.374 418.173 305.94 419.573 304.324 424.25C303.397 426.923 303.832 429.865 305.509 432.315C305.547 432.373 305.586 432.427 305.628 432.481L306.367 433.504C307.08 434.488 308.017 435.29 309.1 435.843C310.183 436.396 311.381 436.684 312.597 436.685C313.078 436.685 313.563 436.638 314.047 436.55L317.001 435.981C317.547 435.877 318.082 435.711 318.594 435.496L320.447 434.696L325.928 432.558C326.105 432.488 326.278 432.415 326.447 432.335C335.586 427.973 339.247 426.227 340.924 425.311L340.963 425.373C341.267 425.204 342.467 424.573 342.978 424.3L344.024 423.838C344.454 423.648 344.866 423.42 345.255 423.158L346.613 422.227L348.767 420.904L351.551 419.377C351.728 419.281 351.897 419.177 352.063 419.069L355.87 416.581C355.947 416.531 356.02 416.481 356.097 416.427L362.701 411.769C362.817 411.688 362.929 411.603 363.04 411.515L366.136 409.069L370.644 405.808L374.944 402.611L376.901 401.185C377.156 401 377.398 400.799 377.624 400.581L380.405 397.985C380.455 397.935 380.501 397.885 380.555 397.838L383.482 394.946C383.555 394.869 383.628 394.792 383.697 394.715L388.213 389.865L393.509 384.781C393.674 384.621 393.831 384.454 393.982 384.281L400.282 377.035C400.405 376.891 400.525 376.743 400.64 376.592L404.086 371.981L405.236 370.404L408.817 365.992C408.936 365.842 409.047 365.692 409.159 365.535L416.363 355.165C416.455 355.031 416.54 354.892 416.628 354.754L418.682 351.358C418.782 351.188 418.878 351.019 418.963 350.842L423.786 341.285L426.47 336.238C426.512 336.165 426.552 336.091 426.59 336.015L431.247 326.531C431.294 326.435 431.34 326.338 431.386 326.235L433.917 320.481C434.032 320.215 434.136 319.946 434.22 319.665L436.967 310.835L437.036 310.612C437.036 310.608 440.267 298.965 442.009 292.885C443.167 289.05 441.97 286.15 440.751 284.412C440.444 283.981 440.063 283.235 439.694 282.512C439.274 281.7 438.851 280.885 438.39 280.112C437.863 279.242 437.32 278.515 436.886 277.935C436.74 277.738 436.597 277.558 436.482 277.388C435.817 276.388 434.355 274.558 433.805 273.915C432.974 272.927 432.051 272.135 431.224 271.485C430.9 271.178 430.578 270.869 430.259 270.558C429.132 269.469 427.967 268.346 426.636 267.385C426.386 267.201 426.124 267.034 425.851 266.885C425.62 266.742 425.401 266.55 425.178 266.373C420.617 262.846 416.024 260.108 411.09 257.969C408.894 257.027 406.64 256.235 404.836 255.596C402.82 254.915 400.213 254.323 398.605 254.046C397.87 253.915 397.136 253.846 396.424 253.846ZM396.424 261.538C396.697 261.538 396.99 261.573 397.305 261.627C398.736 261.873 400.924 262.396 402.274 262.854C404.22 263.542 406.17 264.231 408.032 265.027C412.524 266.977 416.513 269.396 420.428 272.423C420.97 272.846 421.513 273.273 422.132 273.615C423.397 274.531 424.713 275.938 426.228 277.342C426.844 277.815 427.459 278.323 427.97 278.927C428.451 279.488 429.678 281.038 430.132 281.727C430.59 282.4 431.29 283.235 431.778 284.05C432.72 285.623 433.451 287.419 434.455 288.827C434.89 289.446 434.824 290.069 434.613 290.773C432.867 296.877 429.62 308.554 429.62 308.554L426.874 317.385L424.344 323.142L419.686 332.623L416.917 337.823L412.097 347.377L410.044 350.777L402.84 361.142L399.136 365.711L397.924 367.377L394.478 371.988L388.178 379.235L382.728 384.469L378.07 389.477L375.143 392.369L372.367 394.969L370.359 396.438L366.132 399.577L361.494 402.935L358.27 405.485L351.659 410.142L347.851 412.631L344.905 414.25L342.428 415.773L340.913 416.804L339.624 417.373C339.624 417.373 337.232 418.635 337.17 418.681C337.14 418.711 323.136 425.392 323.136 425.392L317.528 427.577L315.551 428.431L312.597 428.992L311.859 427.969C309.851 425.042 317.824 424.731 320.34 422.577C321.263 421.788 322.286 421.119 323.305 420.435C325.678 418.846 327.755 416.912 329.767 414.904C330.617 414.05 331.613 413.304 332.544 412.531C332.901 412.208 333.328 411.938 333.659 411.585C335.213 409.95 336.744 408.312 338.297 406.677C340.001 404.877 341.79 403.146 343.386 401.246C345.97 398.254 348.501 395.161 350.94 392.069C352.24 390.469 353.301 388.704 354.463 386.985C354.824 386.462 355.144 385.942 355.536 385.415C356.994 383.388 358.332 381.331 359.49 379.104C361.186 375.961 363.228 373.019 365.174 370.008C366.378 368.131 367.559 366.215 368.444 364.123C369.132 362.469 370.197 360.965 370.944 359.315C372.101 356.777 373.132 354.181 374.228 351.611C374.324 351.365 374.409 351.05 374.59 350.808C376.901 347.111 378.347 342.961 379.828 338.885C381.62 333.9 383.547 328.927 384.57 323.642C385.04 321.142 385.77 318.723 386.793 316.365C387.39 314.927 387.601 313.358 387.932 311.815C389.094 306.273 390.294 300.731 391.351 295.154C391.913 292.161 392.34 289.173 392.697 286.158C392.978 283.889 393.086 281.596 393.286 279.308C393.474 276.769 393.655 274.254 393.894 271.719C394.086 269.281 394.178 266.596 394.444 264.181C394.544 263.246 394.563 262.3 395.182 261.873C395.574 261.627 395.978 261.538 396.424 261.538Z" fill="white"/>
<path d="M440.151 282.592C438.867 282.592 437.624 281.985 436.732 280.919C436.155 280.242 435.428 279.146 434.744 278.069C434.282 277.35 433.851 276.631 433.501 276.246C432.794 275.627 432.101 274.889 431.551 274.154C429.794 271.842 427.309 270.027 424.682 268.104L420.017 264.65L417.905 263.462C416.371 262.615 414.924 261.815 413.474 261.219C410.274 259.919 406.709 258.742 403.613 257.739C403.155 257.596 402.528 257.458 401.978 257.331C401.532 257.223 401.124 257.131 400.809 257.042L400.324 256.958C399.744 256.854 399.167 256.735 398.559 256.55C397.563 256.246 396.036 255.789 394.994 254.146C394.163 252.869 393.947 251.385 393.917 250.369C393.917 250.369 393.901 248.362 393.878 247.55L393.632 242.535C393.528 240.458 393.424 238.381 393.336 236.304C393.063 228.665 391.813 221.292 390.486 213.481L390.224 211.939C390.021 210.712 389.809 209.773 389.605 208.85C389.34 207.654 389.086 206.481 388.844 204.889L388.732 204.239C388.455 202.673 388.071 200.531 389.428 198.589C391.294 196.154 394.151 196.154 395.686 196.154C397.528 196.154 398.786 196.173 400.374 196.196L401.732 196.215C405.324 196.277 408.078 196.408 410.674 196.638C413.951 196.946 417.74 197.323 421.44 197.958C423.605 198.319 425.636 198.896 427.597 199.454C428.497 199.708 429.397 199.965 430.313 200.2C431.167 200.408 432.121 200.75 433.055 201.096C433.521 201.269 433.982 201.442 434.424 201.581C435.19 201.815 435.982 202.177 436.713 202.531C437.913 203.112 441.378 204.804 442.301 209.235C443.509 215.269 445.047 226.527 445.117 227.004L446.467 239.977L446.521 242.039L446.471 253.481L445.648 265.119C445.648 265.119 444.182 278.358 444.113 278.865C444.013 281.2 442.036 282.592 440.151 282.592" fill="#CE1141"/>
<path d="M395.321 192.944C393.602 192.944 389.021 192.944 386.106 196.76C386.044 196.841 385.983 196.925 385.925 197.01C383.637 200.256 384.248 203.694 384.575 205.541L384.675 206.114C384.941 207.856 385.229 209.168 385.483 210.325C385.675 211.191 385.875 212.067 386.067 213.214L386.329 214.764C387.633 222.441 388.86 229.698 389.125 237.052C389.217 239.221 389.321 241.333 389.429 243.448C389.51 245.102 389.594 246.752 389.667 248.41C389.687 249.071 389.694 249.629 389.698 250.325L389.706 250.971C389.756 252.644 390.094 254.871 391.429 256.925C393.194 259.714 395.944 260.529 396.844 260.794C396.875 260.806 397.014 260.848 397.044 260.856C397.948 261.137 398.71 261.275 399.264 261.375C399.383 261.394 399.498 261.414 399.617 261.441C399.933 261.525 400.321 261.614 400.737 261.71C401.183 261.814 401.694 261.921 402.091 262.044C405.083 263.014 408.56 264.16 411.656 265.421C412.906 265.929 414.264 266.683 415.698 267.479C416.267 267.794 416.841 268.11 417.414 268.421L420.298 270.556L421.21 271.233L422.048 271.848C424.444 273.598 426.706 275.256 428.148 277.144C428.725 277.917 429.464 278.733 430.314 279.521C430.567 279.871 430.844 280.329 431.141 280.787C431.864 281.914 432.61 283.079 433.468 284.083C435.044 285.967 437.368 287.075 439.787 287.075C443.306 287.075 447.164 284.517 447.591 279.767C447.66 279.183 447.741 278.394 447.741 278.394L449.091 266.337C449.102 266.233 449.111 266.129 449.118 266.025L449.929 254.644C449.941 254.474 449.948 254.304 449.948 254.133L450.002 242.783L449.967 240.875C449.963 240.655 449.949 240.436 449.925 240.217L448.587 227.364C448.58 227.283 448.571 227.202 448.56 227.121C448.491 226.641 446.937 215.267 445.714 209.148C444.829 204.921 442.271 201.775 438.094 199.737C437.333 199.371 436.337 198.891 435.148 198.529C434.837 198.429 434.441 198.279 434.033 198.129C433.087 197.779 432.017 197.383 430.833 197.091C430.017 196.883 429.152 196.637 428.287 196.391C426.221 195.806 424.087 195.198 421.683 194.798C417.891 194.148 414.01 193.76 410.675 193.448C407.96 193.202 405.117 193.067 401.441 193.01L399.941 192.987C398.394 192.964 397.137 192.944 395.321 192.944ZM395.321 200.637C397.633 200.637 399.014 200.667 401.314 200.698C404.21 200.748 407.079 200.848 409.964 201.11C413.441 201.433 416.975 201.794 420.421 202.387C423.36 202.875 426.102 203.821 428.998 204.564C430.252 204.871 431.656 205.494 432.902 205.887C433.533 206.079 434.148 206.375 434.721 206.652C436.433 207.487 437.733 208.567 438.171 210.66C439.36 216.61 440.933 228.16 440.933 228.16L442.275 241.014L442.31 242.748L442.256 254.098L441.444 265.483L440.087 277.648C440.087 277.648 439.998 278.517 439.937 278.991C439.925 279.218 439.894 279.383 439.787 279.383C439.691 279.383 439.51 279.321 439.317 279.091C438.198 277.779 436.679 274.902 435.787 274.098C435.233 273.61 434.698 273.067 434.264 272.483C431.944 269.437 428.817 267.283 425.794 265.06C424.517 264.106 423.221 263.141 421.933 262.194C421.698 262.014 421.456 261.833 421.198 261.717C418.983 260.54 416.848 259.229 414.56 258.298C411.314 256.975 407.767 255.798 404.429 254.717C403.514 254.429 402.171 254.164 401.452 253.971C400.748 253.806 400.067 253.741 399.333 253.514C398.729 253.314 398.206 253.244 397.875 252.721C397.567 252.248 397.417 251.548 397.398 250.894C397.387 249.814 397.387 249.125 397.352 248.064C397.183 244.287 396.971 240.541 396.814 236.779C396.514 228.391 395.044 220.175 393.648 211.933C393.183 209.152 392.702 207.748 392.279 204.948C392.064 203.56 391.675 202.206 392.214 201.433C392.791 200.683 394.098 200.637 395.321 200.637Z" fill="white"/>
<path d="M344.792 145.161C342.33 145.161 340.111 145.035 338.203 144.785C333.307 144.173 324.088 141.815 323.703 141.715L314.676 138.469C313.888 138.185 313.215 137.646 312.757 136.942L310.161 132.927L302.695 131.238C301.984 131.239 301.286 131.042 300.679 130.669C300.073 130.296 299.582 129.762 299.261 129.127L297.169 126.746C296.706 126.522 296.293 126.208 295.953 125.823L292.803 122.261L290.019 122.077C288.78 121.992 287.653 121.311 286.999 120.25L285.719 118.165L276.488 115.05L269.68 117.7C269.23 117.877 268.757 117.961 268.284 117.961C267.611 117.961 266.934 117.785 266.338 117.431C265.761 117.096 265.295 116.619 264.969 116.061L252.884 110.181C252.419 110.108 251.972 109.977 251.622 109.773L243.553 105.108L228.015 104.2C227.63 104.327 227.23 104.388 226.822 104.388C226.784 104.388 220.361 104.215 220.361 104.215C219.961 104.353 219.541 104.423 219.119 104.423C218.138 104.423 217.172 104.05 216.438 103.335L212.042 99.0731C211.657 98.9192 211.299 98.7 210.976 98.4269L206.38 94.4846L194.211 93.8538C193.988 93.8962 193.765 93.9192 193.545 93.9192C193.461 93.9192 182.78 93.0577 182.78 93.0577C182.547 93.0383 182.317 92.9971 182.092 92.9347C182.092 92.9347 177.426 92.5692 177.419 92.5692C177.146 92.5692 169.442 92.3808 169.442 92.3808C169.223 92.3776 169.005 92.3531 168.792 92.3077L166.165 93.3885L160.63 95.3231C160.289 95.4419 159.933 95.5119 159.572 95.5308L159.219 95.55L149.365 99.327L144.972 100.896C142.453 101.881 141.684 102.15 141.134 102.223C140.369 102.454 138.795 102.992 138.795 102.992L133.169 105.2C132.719 105.373 132.246 105.465 131.765 105.465L127.153 107.338C126.691 107.526 126.198 107.623 125.699 107.623C125.634 107.623 125.453 107.615 125.426 107.615C124.399 107.977 122.584 108.646 122.584 108.646L120.338 109.331C119.978 109.437 119.605 109.492 119.23 109.492C118.258 109.492 117.322 109.124 116.611 108.461C115.615 107.535 115.18 106.146 115.476 104.815C115.757 103.55 116.28 102.842 119.684 99.9269L121.638 98.2846L127.084 93.9885L132.957 90.0231L138.419 85.7115C138.519 85.6308 138.626 85.5538 138.734 85.4846L139.553 84.9654L144.815 82.1654L146.342 81.2808L151.076 78.8115L155.657 75.8L161.557 72.5923L164.38 71.2308L172.692 67.9769L178.945 65.3769L181.322 64.4577L183.111 63.4115C183.403 63.2423 183.719 63.1115 184.045 63.0231L187.792 62.0077L189.084 61.2154C189.396 61.0266 189.732 60.8816 190.084 60.7846L192.976 59.9962L197.561 58.3231C197.98 58.1731 198.422 58.0961 198.869 58.0961C198.907 58.0961 199.753 58.1231 199.753 58.1231L204.345 57.2269L207.38 56.2885C207.511 56.2462 207.642 56.2154 207.772 56.1885L212.038 55.3423L216.503 54.8346L221.522 54.6962L227.272 54.0346L233.719 53.8462L237.576 53.9154L239.972 54.1615L245.676 54.5385C245.83 54.55 245.98 54.5692 246.13 54.5962L250.715 55.4577L253.049 55.5347C253.238 55.5385 253.426 55.5615 253.611 55.5923L259.088 56.5885L261.953 57.3231L262.488 57.4154L266.33 58.3269C266.495 58.3654 266.661 58.4154 266.822 58.4731L276.034 61.9423L282.207 64.1846L283.865 64.8808L291.811 69.1615L302.895 75.8962L306.057 77.5731C306.249 77.6731 306.43 77.7923 306.599 77.9231L315.865 85.0808L327.445 95.7731L330.68 98.9423L341.107 110.385C341.195 110.481 341.284 110.585 341.361 110.692L343.099 113.05L344.815 115.073L354.065 128.377L356.28 131.835C357.688 134.312 358.538 135.865 358.888 136.581C359.919 138.373 360.084 140.05 359.407 141.615C358.249 144.361 355.622 144.608 354.761 144.692C354.149 144.761 353.465 144.8 352.73 144.835L351.515 144.904C349.665 145.035 347.284 145.161 344.795 145.161H344.792Z" fill="#CE1141"/>
<path d="M233.824 50H233.617L227.497 50.1654C227.279 50.1725 227.061 50.1892 226.843 50.2154L221.093 50.8615L216.74 50.9692C216.52 50.973 216.3 50.9884 216.082 51.0154L211.943 51.4731C211.724 51.4961 211.509 51.5269 211.293 51.5731L207.028 52.4154C206.767 52.4692 206.505 52.5346 206.251 52.6154L203.413 53.4924L199.44 54.2654L199.113 54.2538C199.032 54.25 198.951 54.25 198.874 54.25C197.981 54.2507 197.095 54.4069 196.255 54.7115L191.667 56.3692L189.074 57.0731C188.374 57.2654 187.701 57.5538 187.082 57.9346L186.255 58.4385L183.04 59.3115C182.387 59.4872 181.761 59.7499 181.178 60.0923L179.655 60.9769L177.651 61.7539C177.59 61.7769 177.528 61.8 177.47 61.8269L171.136 64.4577L163.251 67.5347C163.07 67.6044 162.892 67.6814 162.717 67.7654L160.059 69.0424C159.947 69.0962 159.836 69.15 159.728 69.2115L154.101 72.2538C153.913 72.3538 153.732 72.4615 153.555 72.5808L148.967 75.5731L144.717 77.7885C144.617 77.8385 144.52 77.8923 144.42 77.95L142.893 78.8308L138.017 81.4154C137.836 81.5115 137.659 81.6154 137.486 81.7269L136.667 82.2462C136.452 82.3835 136.244 82.5311 136.043 82.6885L130.574 86.9923L126.093 90.0115L125.178 90.6269C125.016 90.7354 124.859 90.8495 124.705 90.9692L119.351 95.1885L119.167 95.3423L117.24 96.9577C113.928 99.7962 112.332 101.258 111.724 103.962C111.431 105.273 111.486 106.637 111.883 107.921C112.281 109.204 113.007 110.361 113.99 111.277C115.414 112.602 117.287 113.338 119.232 113.339C119.981 113.338 120.726 113.229 121.443 113.015L123.466 112.408C123.616 112.361 123.763 112.311 123.913 112.258C124.638 111.988 125.365 111.723 126.093 111.462C126.957 111.415 127.807 111.226 128.609 110.9L132.613 109.265C133.282 109.192 133.943 109.031 134.57 108.781L140.209 106.573C140.578 106.446 141.47 106.146 142.063 105.965C143.078 105.765 144.224 105.323 146.378 104.481L150.578 102.981L160.047 99.3538C160.678 99.2962 161.301 99.1654 161.897 98.9577L167.24 97.0962C167.37 97.0496 167.5 96.9995 167.628 96.9462L169.378 96.2308C169.832 96.2385 175.678 96.3808 177.309 96.4192L181.578 96.7538C181.882 96.8192 182.186 96.8692 182.47 96.8923L192.982 97.7423C193.193 97.7577 193.397 97.7653 193.605 97.7653C193.893 97.7653 194.174 97.7538 194.459 97.7193L204.87 98.2577L208.474 101.346C208.886 101.7 209.335 102.01 209.813 102.269L213.767 106.1C215.232 107.523 217.163 108.269 219.12 108.269C219.693 108.269 220.267 108.204 220.832 108.077L226.613 108.235C226.686 108.235 226.755 108.239 226.824 108.239C227.351 108.239 227.878 108.181 228.386 108.077L242.417 108.896L249.697 113.104C250.367 113.488 251.086 113.773 251.824 113.942L262.432 119.108C262.986 119.75 263.64 120.308 264.39 120.75C265.586 121.454 266.936 121.808 268.286 121.808C269.232 121.808 270.178 121.635 271.078 121.285L276.582 119.142L283.174 121.365L283.728 122.269C285.032 124.389 287.282 125.75 289.767 125.915L290.974 125.996L293.07 128.369C293.547 128.914 294.1 129.387 294.713 129.773L296.105 131.358C297.39 133.496 299.674 134.923 302.247 135.073L307.782 136.331L309.528 139.031C310.439 140.441 311.787 141.514 313.367 142.085L322.04 145.227C322.274 145.312 322.509 145.381 322.747 145.442C323.747 145.7 332.678 147.973 337.751 148.604C339.778 148.869 342.159 149.008 344.79 149.008C346.924 149.008 349.209 148.919 351.782 148.742C352.174 148.715 352.551 148.696 352.913 148.677C353.74 148.638 354.509 148.592 355.197 148.512C360.159 148.046 362.201 144.896 362.974 143.061C363.751 141.269 364.286 138.304 362.293 134.781C361.99 134.177 361.336 132.95 359.747 130.127C359.674 130.004 359.601 129.877 359.52 129.754L357.382 126.419C357.331 126.34 357.278 126.262 357.224 126.185L348.193 113.169C348.058 112.972 347.913 112.782 347.759 112.6L346.047 110.569L344.463 108.415C344.305 108.196 344.136 107.992 343.955 107.792L340.974 104.519L333.674 96.5077C333.579 96.4004 333.479 96.2977 333.374 96.2L330.228 93.1077C330.174 93.0538 330.12 93 330.063 92.95L318.743 82.4808C318.575 82.3273 318.401 82.181 318.22 82.0423L308.955 74.8808C308.612 74.6152 308.246 74.3797 307.863 74.1769L304.705 72.5L293.978 65.973C293.868 65.9058 293.757 65.8417 293.644 65.7808L286.024 61.6577C285.809 61.5385 285.59 61.4347 285.367 61.3385L283.897 60.7192C283.774 60.6646 283.648 60.6145 283.52 60.5692L277.305 58.3154L268.178 54.8769C267.858 54.7568 267.53 54.6579 267.197 54.5808L266.486 54.4154L263.582 53.7154C263.455 53.6846 263.324 53.6577 263.197 53.6308L262.67 53.5308L260.336 52.9269C260.151 52.8804 259.965 52.8394 259.778 52.8039L254.297 51.8115C253.927 51.7421 253.551 51.7009 253.174 51.6885L251.132 51.6231L246.844 50.8154C246.543 50.7609 246.24 50.7237 245.936 50.7038L240.236 50.3192L238.336 50.1154C238.109 50.0884 237.882 50.0769 237.651 50.0692L233.97 50H233.824ZM233.824 57.6923L237.505 57.7615L239.559 57.9846L245.424 58.3769L250.297 59.2923L252.924 59.3769L258.401 60.3731L260.99 61.0461L261.774 61.1923L264.755 61.9115L265.467 62.0769L274.682 65.5462L280.897 67.8L282.367 68.423L289.982 72.5462L300.901 79.1846L304.251 80.9692L313.517 88.1269L324.84 98.5962L327.99 101.688L335.286 109.7L338.267 112.973L340.001 115.331L341.874 117.554L350.909 130.569L353.047 133.908C353.047 133.908 355.24 137.796 355.482 138.369C355.651 138.685 356.174 139.404 355.878 140.089C355.59 140.777 354.982 140.808 354.324 140.869C353.44 140.973 352.397 140.988 351.247 141.069C349.47 141.192 347.186 141.315 344.79 141.315C342.759 141.315 340.647 141.227 338.701 140.973C333.97 140.381 324.659 137.992 324.659 137.992L315.99 134.854L312.54 129.523L303.167 127.396H302.697L302.643 127.15L299.259 123.292L298.836 123.277L294.643 118.531L290.278 118.239L288.27 114.969L276.397 110.962L268.286 114.115L268.182 113.35L253.901 106.396L253.551 106.446L245.463 101.769L245.359 101.362L227.186 100.3L226.824 100.546L219.597 100.346L219.12 100.577L213.874 95.4923L213.482 95.5077L208.332 91.0923L208.247 90.7308L193.724 89.9808L193.605 90.0731L183.093 89.2231L182.924 89.1461L177.732 88.7346C177.624 88.7346 169.54 88.5385 169.54 88.5385L168.932 88.0962L164.705 89.8308L159.367 91.6923L158.409 91.7462L147.993 95.7346L143.682 97.2731C143.682 97.2731 140.79 98.4038 140.605 98.4038C140.601 98.4038 140.597 98.4038 140.597 98.4C140.597 98.3962 140.593 98.3962 140.582 98.3962C140.374 98.3962 137.563 99.35 137.563 99.35L131.767 101.619H130.99L125.701 103.777C125.701 103.777 125.063 103.746 124.99 103.715H124.986C124.847 103.715 121.251 105.042 121.251 105.042L119.232 105.646C119.305 105.315 122.19 102.85 122.19 102.85L124.117 101.231L129.467 97.0115L130.393 96.3923L135.105 93.2153L140.797 88.7346L141.617 88.2154L146.62 85.5654L148.267 84.6115L152.855 82.2231L157.759 79.0192L163.39 75.9769L166.047 74.7L174.09 71.5615L180.424 68.9269L182.997 67.9346L185.051 66.7346L189.328 65.5769L191.093 64.4962L193.99 63.7077L198.87 61.9423L200.063 61.9808L205.29 60.9654L208.52 59.9615L212.79 59.1192L216.928 58.6577L221.62 58.5423L227.705 57.8577L233.824 57.6923Z" fill="white"/>
<path d="M434.656 203.019C433.979 203.019 433.213 202.862 432.717 202.716L432.098 202.539C431.029 202.227 429.983 201.912 429.002 201.466C427.186 200.619 425.209 199.969 423.283 199.573L421.279 199.146C419.344 198.731 417.398 198.316 415.459 197.954C414.409 197.785 412.079 197.542 412.059 197.539C408.986 197.254 405.221 196.942 404.575 196.939C401.125 197 397.675 197.1 394.221 197.216C393.244 197.262 392.202 197.3 391.159 197.3C388.313 197.3 386.171 195.623 385.509 192.923L385.021 191.05C384.806 190.212 384.59 189.385 384.359 188.558L382.986 184.123L381.675 179.989C381.056 178.039 380.436 176.085 379.802 174.142C379.425 173 378.929 171.846 378.425 170.712C377.829 169.331 377.298 167.981 376.771 166.635C375.806 164.169 374.898 161.842 373.702 159.666C372.752 157.9 371.917 156.093 371.09 154.293L370.006 151.966C369.717 151.385 369.483 150.669 369.333 149.896C369.056 148.346 369.344 147.062 370.179 145.9C371.171 144.689 372.198 144.273 372.748 144.05C373.325 143.812 375.309 142.892 375.309 142.892L377.963 141.35C377.952 141.35 379.756 140.158 380.194 139.831C380.748 139.419 383.256 137.35 383.363 137.266H383.359C383.352 137.266 386.467 134.393 387.959 132.743C388.94 131.654 391.613 127.527 393.194 124.946C393.669 124.168 394.405 123.585 395.271 123.3C395.686 123.158 396.136 123.077 396.567 123.077C398.125 123.077 399.406 123.789 400.379 125.192C400.933 125.839 402.209 127.369 402.209 127.369L416.132 146.189L418.206 149.546L421.113 155.362L423.994 160.046C424.075 160.185 424.152 160.327 424.217 160.473L426.748 166.1L428.825 171.092L433.229 180.904L434.767 185.173L436.329 189.827L436.879 191.935L437.317 193.092C437.502 193.596 438.459 196.258 438.744 197.9C439.048 199.696 438.213 202 436.09 202.773L436.086 202.766C435.625 202.931 435.113 203.019 434.656 203.019Z" fill="#CE1141"/>
<path d="M396.575 119.231C395.748 119.231 394.902 119.373 394.102 119.639C392.387 120.196 390.89 121.35 389.925 122.935C388.017 126.042 385.76 129.435 385.094 130.192C384.021 131.373 381.694 133.569 380.763 134.435C380.202 134.892 378.44 136.339 377.936 136.719C377.51 137.035 376.34 137.812 375.86 138.131L373.402 139.542C372.86 139.792 371.771 140.292 371.41 140.446C370.594 140.777 368.856 141.477 367.406 143.216C367.283 143.366 367.163 143.516 367.048 143.673C365.613 145.681 365.102 147.966 365.533 150.466C365.779 151.746 366.129 152.796 366.606 153.75C366.906 154.385 367.263 155.154 367.617 155.927C368.448 157.727 369.302 159.589 370.306 161.458C371.417 163.477 372.283 165.692 373.198 168.035C373.74 169.423 374.287 170.819 374.883 172.196C375.344 173.239 375.829 174.366 376.167 175.377C376.775 177.227 377.375 179.127 377.975 181.023C378.432 182.476 378.893 183.927 379.36 185.377C379.533 185.958 379.763 186.692 379.99 187.423C380.229 188.177 380.467 188.931 380.687 189.689C380.894 190.404 381.094 191.192 381.294 191.985C381.463 192.639 381.633 193.3 381.813 193.962C382.917 198.266 386.64 201.146 391.117 201.146C392.275 201.146 393.379 201.108 394.483 201.054C397.787 200.946 401.221 200.846 404.687 200.785C405.252 200.804 408.852 201.108 411.764 201.373C411.76 201.373 413.894 201.596 414.944 201.766C416.644 202.085 418.529 202.489 420.406 202.889L422.483 203.335C424.129 203.673 425.863 204.246 427.39 204.95C428.733 205.566 430.002 205.931 431.025 206.231L431.613 206.4C432.133 206.554 433.356 206.866 434.667 206.866C435.594 206.866 436.563 206.693 437.46 206.366L437.463 206.369C441.533 204.858 443.121 200.535 442.544 197.235C442.217 195.373 441.31 192.789 440.933 191.758L440.525 190.619L440.133 189.116C440.087 188.946 440.04 188.777 439.983 188.612L438.452 184.031L436.975 179.889C436.906 179.7 436.833 179.516 436.748 179.331L432.344 169.519L430.352 164.727C430.325 164.662 430.298 164.589 430.267 164.523L427.737 158.896C427.598 158.6 427.452 158.319 427.283 158.042L424.417 153.354L423.86 152.216L421.813 148.116C421.713 147.919 421.606 147.727 421.49 147.539L419.606 144.462C419.49 144.272 419.367 144.088 419.237 143.908L418.437 142.827L405.456 125.262C405.363 125.139 405.271 125.016 405.171 124.9C405.171 124.9 404.129 123.654 403.425 122.835C401.206 119.712 398.187 119.231 396.575 119.231ZM396.575 126.923C396.99 126.923 397.087 127.216 397.387 127.608C398.025 128.342 399.267 129.831 399.267 129.831L412.248 147.4L413.048 148.477L414.929 151.554L416.963 155.623L417.675 157.066L420.717 162.05L423.252 167.681L425.283 172.569L429.729 182.481L431.156 186.469L432.69 191.05L433.167 192.896L433.71 194.4C433.71 194.4 434.725 197.173 434.963 198.558C434.994 198.739 434.871 199.127 434.786 199.158C434.763 199.169 434.721 199.173 434.667 199.173C434.467 199.173 434.075 199.108 433.817 199.031C432.713 198.7 431.613 198.423 430.613 197.966C428.56 197.019 426.283 196.262 424.067 195.808C421.444 195.254 418.802 194.662 416.175 194.173C414.96 193.977 412.475 193.716 412.475 193.716C412.475 193.716 405.721 193.093 404.587 193.093H404.544C401.044 193.158 397.579 193.258 394.106 193.369C393.129 193.419 392.152 193.454 391.171 193.454H391.117C390.148 193.454 389.494 193.012 389.256 192.012C388.84 190.492 388.487 188.985 388.063 187.5C387.617 185.996 387.129 184.508 386.683 183.016C385.606 179.681 384.563 176.296 383.467 172.946C383.04 171.669 382.502 170.392 381.944 169.146C380.31 165.354 379.083 161.458 377.087 157.816C375.775 155.381 374.679 152.808 373.487 150.312C373.306 149.946 373.19 149.554 373.114 149.166C373.029 148.669 373.094 148.446 373.306 148.15C373.552 147.858 373.979 147.708 374.34 147.558C374.702 147.416 376.937 146.385 376.937 146.385L379.902 144.681C379.902 144.681 382.044 143.262 382.521 142.9C383.013 142.542 385.817 140.231 385.817 140.231C385.817 140.231 389.16 137.158 390.821 135.327C392.49 133.466 396.483 126.954 396.483 126.954C396.51 126.954 396.544 126.923 396.575 126.923Z" fill="white"/>
<path d="M366.891 143.185C365.026 143.185 363.103 142.1 361.999 140.419L361.549 139.785C360.83 138.758 360.01 137.592 359.372 136.246C358.607 134.589 357.522 132.962 355.941 131.085C354.11 128.865 352.68 126.531 351.295 124.273C350.857 123.558 350.418 122.842 349.972 122.135C349.826 121.919 349.68 121.658 349.537 121.392C348.318 119.896 347.264 118.539 346.214 117.181C344.595 115.092 343.068 113.119 341.322 111.392C339.445 109.512 337.83 107.473 336.495 105.731C335.184 104.023 333.618 102.481 331.953 100.85L331.134 100.039C328.553 97.5809 326.587 95.6078 324.807 93.6886C323.745 92.5424 322.437 91.5386 321.053 90.4732C320.334 89.9193 319.611 89.3655 318.907 88.7847C318.907 88.7847 317.299 87.4155 317.057 87.1963C316.849 87.0078 316.653 86.7963 316.422 86.6539C314.222 85.427 312.518 83.9501 311.087 82.6578C309.449 81.1078 307.668 79.7578 305.73 78.5848C302.187 76.4848 298.63 74.4039 295.022 72.3348C294.387 71.9539 293.711 71.6732 292.761 71.3886C291.511 71.027 290.357 70.4963 289.334 70.027C288.845 69.804 288.357 69.5809 287.857 69.3809C286.71 68.9155 285.564 68.4809 284.422 68.0463C283.195 67.5809 281.972 67.1155 280.76 66.627C280.391 66.4963 279.326 65.9655 279.326 65.9655C278.891 65.7539 278.534 65.4732 278.21 65.1155L277.914 64.7847C276.545 63.2693 276.599 60.9424 278.045 59.4924L278.714 58.8232C279.441 58.0962 280.422 57.6924 281.437 57.6924C281.56 57.6924 281.687 57.6963 281.814 57.7116L283.003 57.827C283.153 57.8424 283.295 57.8616 283.437 57.8963L291.022 59.527L298.98 61.5386C299.299 61.6347 309.287 65.1039 310.195 65.3847V65.3963C310.764 65.5655 311.737 65.9078 313.703 66.5924L313.691 66.627C314.799 66.9963 317.118 67.904 322.849 70.1578L340.06 78.2924L361.899 91.3886C362.099 91.5078 362.287 91.6463 362.46 91.7963L366.749 95.5655C367.718 96.3193 368.434 96.8732 368.957 97.3425L368.98 97.3193C369.237 97.5347 381.368 107.354 381.368 107.354L382.21 108.077L384.776 110.6C384.945 110.765 385.099 110.95 385.237 111.146L386.38 112.8L388.122 114.796C388.287 114.989 388.437 115.196 388.564 115.419L389.237 116.6C390.43 118.412 390.607 119.262 390.684 119.623C390.934 120.892 390.649 122.292 389.837 123.812L386.895 128.746C386.83 128.865 386.753 128.977 386.672 129.085L384.999 131.312C384.595 131.796 382.36 134.389 381.134 135.546C380.287 136.3 379.187 137.135 378.314 137.792C377.91 138.096 377.564 138.35 377.387 138.504C376.599 139.25 374.972 140.123 374.076 140.569L371.214 141.835L369.591 142.504C369.057 142.735 368.176 143.062 367.372 143.158C367.222 143.177 367.045 143.185 366.891 143.185" fill="#CE1141"/>
<path d="M281.438 53.8462C279.399 53.8474 277.444 54.6564 276 56.0962L275.331 56.7692C272.435 59.6615 272.315 64.3192 275.054 67.3577L275.354 67.6885C275.985 68.3923 276.746 68.9731 277.592 69.4C278.085 69.65 278.777 69.9846 279.411 70.227C280.615 70.7115 281.831 71.173 283.05 71.6385C284.173 72.0654 285.296 72.4923 286.415 72.9423C286.858 73.1231 287.288 73.3231 287.723 73.5231C288.811 74.0231 290.169 74.6423 291.735 75.0923C292.285 75.2615 292.704 75.4269 293.012 75.6077C296.62 77.6833 300.214 79.7846 303.792 81.9115C305.442 82.9115 307.004 84.0923 308.377 85.3923C310.061 86.9153 311.915 88.5193 314.269 89.8577C314.338 89.9192 314.4 89.9807 314.469 90.0385C314.758 90.3038 315.046 90.5615 315.342 90.8077L315.715 91.1231L316.296 91.6154C316.35 91.6615 316.404 91.7077 316.454 91.75C317.192 92.3615 317.95 92.9462 318.708 93.527C320.015 94.527 321.142 95.3923 321.977 96.2962C323.823 98.2808 325.842 100.308 328.535 102.877L329.281 103.611C330.835 105.142 332.304 106.585 333.438 108.069C334.854 109.911 336.565 112.061 338.565 114.077C340.181 115.677 341.635 117.554 343.181 119.546C344.15 120.8 345.15 122.092 346.242 123.385C346.435 123.731 346.6 124.012 346.777 124.285C347.165 124.892 347.592 125.592 348.023 126.292C349.473 128.661 350.977 131.111 352.961 133.511C354.354 135.169 355.261 136.523 355.861 137.819C356.677 139.542 357.638 140.911 358.415 142.011L358.869 142.661C360.619 145.311 363.723 147.031 366.892 147.031C366.988 147.031 367.119 147.031 367.219 147.023C367.415 147.015 367.61 147 367.804 146.977C368.831 146.861 369.969 146.535 371.188 146.004L372.569 145.438C372.638 145.411 372.704 145.381 372.773 145.354C372.777 145.354 374.719 144.492 375.415 144.188C375.544 144.133 375.671 144.074 375.796 144.011C377.569 143.123 378.946 142.254 379.892 141.427C380.073 141.281 380.335 141.085 380.638 140.858C381.546 140.173 382.681 139.319 383.608 138.492C383.66 138.447 383.711 138.401 383.761 138.354C385.081 137.115 387.158 134.711 387.769 134.004C387.873 133.881 387.973 133.754 388.073 133.623L389.742 131.4C389.908 131.181 390.058 130.954 390.2 130.719L393.054 125.942C393.111 125.838 393.173 125.731 393.227 125.627C394.085 124.023 394.992 121.55 394.454 118.873C394.265 117.942 393.877 116.696 392.465 114.504L391.915 113.527C391.658 113.077 391.358 112.658 391.019 112.265L389.419 110.431L388.4 108.958C388.128 108.566 387.82 108.201 387.481 107.865L385.119 105.531C384.991 105.401 384.857 105.277 384.719 105.158L383.981 104.527C383.919 104.47 383.855 104.416 383.788 104.365L376.892 98.7808C374.146 96.5577 371.765 94.6308 371.438 94.3615L371.408 94.4C370.746 93.8 369.977 93.1962 369.115 92.527L364.996 88.9077C364.649 88.6032 364.276 88.3303 363.881 88.0923L342.377 75.177C342.161 75.0463 341.934 74.9232 341.708 74.8193L324.735 66.7847C324.578 66.7076 324.417 66.6383 324.254 66.577C318.984 64.5078 316.411 63.4963 314.95 63.004L314.965 62.9616C313.161 62.3309 312.081 61.9501 311.342 61.7232L311.346 61.7155C310.677 61.5001 305.284 59.6425 300.561 58.0001C300.353 57.9284 300.141 57.8656 299.927 57.8116L292.104 55.8309C292.015 55.8081 291.925 55.7876 291.834 55.7693L284.246 54.1347C283.961 54.0726 283.672 54.0277 283.381 54L282.188 53.8808C281.939 53.8578 281.689 53.8463 281.438 53.8462ZM281.438 61.5385L282.631 61.6538L290.215 63.2885L298.035 65.2692C298.035 65.2692 309.012 69.0769 309.123 69.0769C309.154 69.0769 312.435 70.2231 312.435 70.2231C312.496 70.2231 321.442 73.7346 321.442 73.7346L338.415 81.7692L359.919 94.6885L364.211 98.4538C364.211 98.4538 366.492 100.235 366.492 100.25C366.515 100.285 374.792 106.973 378.946 110.338C379.188 110.55 379.711 110.996 379.711 110.996L382.073 113.335L383.338 115.165L385.219 117.323L385.892 118.504C385.892 118.504 386.811 119.908 386.911 120.4C387.019 120.927 386.446 122 386.446 122L383.596 126.777L381.923 129.004C381.923 129.004 379.611 131.696 378.496 132.746C377.338 133.781 375.327 135.181 374.835 135.623C374.369 136.065 373.008 136.804 372.358 137.131C371.646 137.438 369.658 138.319 369.658 138.319L368.135 138.942C368.135 138.942 367.335 139.288 366.923 139.338H366.892C366.45 139.338 365.661 138.996 365.208 138.304C364.388 137.111 363.473 135.923 362.846 134.6C361.835 132.404 360.431 130.442 358.888 128.608C356.696 125.958 355.046 122.954 353.215 120.073C352.919 119.619 352.715 119.088 352.354 118.696C349.523 115.392 347.131 111.731 344.023 108.658C342.396 107.019 340.95 105.219 339.542 103.388C337.842 101.165 335.823 99.2692 333.838 97.3038C331.711 95.2769 329.615 93.2192 327.627 91.0731C325.754 89.0461 323.458 87.5577 321.361 85.8231C320.988 85.5 320.608 85.1846 320.242 84.8769C319.573 84.3231 318.954 83.6308 318.2 83.2462C316.519 82.3077 315.081 81.0846 313.669 79.8077C311.835 78.0731 309.85 76.5847 307.719 75.2962C304.131 73.1654 300.561 71.0769 296.938 68.9962C295.973 68.4231 294.965 68.0346 293.865 67.7038C292.281 67.2462 290.823 66.4269 289.292 65.8115C286.931 64.8577 284.546 64.0077 282.204 63.0615C281.835 62.9269 281.065 62.5385 281.065 62.5385L280.769 62.2077L281.438 61.5385Z" fill="white"/>
<path d="M59.2668 276.081C58.7822 276.081 58.2938 275.992 57.8245 275.8C57.7638 275.777 57.7047 275.75 57.6476 275.719C56.4515 275.211 55.2746 274.011 55.013 271.296L54.59 264.834L54.1822 263.934C53.9476 263.407 53.8322 262.834 53.8476 262.254L54.5168 236.646C54.5211 236.51 54.5314 236.374 54.5476 236.238L56.1053 224.561L56.463 219.184C56.4745 218.992 56.5015 218.8 56.5438 218.611L57.5861 213.931L59.3476 203.311L60.5284 197.769C60.5822 197.523 60.6554 197.284 60.7592 197.054L63.2168 191.35L63.4822 189.173C63.5448 188.648 63.7152 188.142 63.9825 187.686C64.2499 187.23 64.6086 186.834 65.0361 186.523L71.4284 181.861L85.5707 171.35L98.2168 162.238L106.205 156.134C106.59 155.534 107.136 155.042 107.794 154.727L111.617 152.892L113.251 151.223C113.998 150.457 114.998 150.065 116.001 150.065C116.836 150.065 117.674 150.338 118.374 150.888L118.386 150.896C120.574 151.254 125.848 152.123 127.713 152.411C129.767 151.746 133.128 150.896 138.74 149.477C139.048 149.397 139.364 149.357 139.682 149.357C140.051 149.357 140.421 149.411 140.778 149.519L142.074 149.904C142.198 149.888 142.324 149.884 142.451 149.884C143.017 149.884 143.578 150.007 144.105 150.257L148.409 152.304L151.617 149.769C151.84 149.407 152.109 149.088 152.409 148.857L168.924 136.1C169.613 135.569 170.444 135.296 171.274 135.296C171.944 135.296 172.617 135.473 173.221 135.827L173.74 136.131L177.274 136.246C177.605 136.257 177.932 136.311 178.248 136.404L192.425 136.315C192.836 136.169 193.269 136.095 193.705 136.096C193.824 136.096 193.944 136.1 194.063 136.111L201.382 136.8C201.601 136.592 201.844 136.407 202.113 136.254L219.828 126.027C220.424 125.681 221.09 125.515 221.751 125.515C222.182 125.515 222.613 125.588 223.024 125.731L233.221 124.961C233.678 124.719 234.186 124.573 234.705 124.531C234.705 124.531 239.674 124.142 239.774 124.142C240.201 124.142 240.628 124.215 241.032 124.354C241.032 124.354 265.348 123.077 265.417 123.077C265.913 123.077 266.401 123.173 266.867 123.361L273.309 125.984C273.309 125.984 280.648 125.45 280.74 125.45C281.601 125.45 282.436 125.742 283.117 126.273L284.782 126.846C284.863 126.841 284.944 126.839 285.024 126.838C285.217 126.838 285.405 126.854 285.598 126.881L289.863 127.523C291.255 127.731 292.409 128.681 292.894 129.973L294.932 131.815C295.432 131.942 295.901 132.169 296.317 132.484L301.236 136.227L310.694 136.965C311.099 136.823 311.526 136.75 311.955 136.75C312.374 136.75 312.794 136.819 313.194 136.957L325.901 141.311H325.898C325.959 141.311 333.282 143.131 336.375 143.577L345.348 144.746H348.609C348.974 144.746 349.336 144.796 349.686 144.9C353.321 144.607 355.774 144.423 356.655 144.423C357.198 144.423 358.974 144.277 361.321 144.007L361.763 143.938C362.282 143.854 362.713 143.804 363.101 143.804C364.009 143.804 364.867 144.031 365.644 144.481C367.082 145.269 367.701 146.434 368.001 146.996L364.821 149.215L368.198 147.373C368.378 147.704 368.501 147.95 368.624 148.246L369.901 150.661C371.617 153.934 373.24 157.027 374.567 160.8C374.709 161.227 374.874 161.581 375.036 161.946C375.228 162.392 375.428 162.842 375.601 163.307C375.855 164.015 376.067 164.68 376.278 165.346C376.59 166.334 376.89 167.323 377.324 168.25C378.351 170.319 379.071 172.477 379.767 174.557C380.063 175.442 380.359 176.33 380.682 177.211C381.524 179.534 382.201 181.773 382.89 184.046C383.267 185.304 383.651 186.569 384.067 187.861C384.755 190.011 384.201 191.534 383.617 192.434C383.032 193.342 381.848 194.481 379.548 194.742C377.682 194.946 375.825 195.123 373.975 195.3L371.578 195.538C368.39 195.865 365.213 196.188 362.032 196.427C357.355 196.815 348.574 197.881 345.924 198.207L345.763 198.304C345.176 198.644 344.51 198.823 343.832 198.823C343.075 198.823 342.336 198.599 341.705 198.181C341.705 198.181 339.463 198.334 339.374 198.334C338.901 198.334 338.436 198.25 337.994 198.077L332.609 196.007L327.124 195.184C326.562 195.1 326.025 194.892 325.551 194.577L325.471 194.519L325.39 194.538C325.105 194.604 324.817 194.638 324.524 194.638C324.198 194.638 323.871 194.596 323.555 194.511L316.44 192.657L315.024 192.992C314.971 193.019 312.678 194.084 312.678 194.084C312.453 194.187 312.219 194.269 311.978 194.331C311.248 195.054 310.267 195.438 309.271 195.438C308.632 195.438 307.982 195.281 307.39 194.946L303.882 192.973L303.632 192.965C303.082 192.954 302.536 192.819 302.04 192.577L298.786 190.984L298.251 191.154C298.021 191.311 297.782 191.446 297.536 191.538L285.163 196.261C284.767 196.688 284.271 197.023 283.713 197.234L279.724 198.742C279.424 199.015 279.078 199.238 278.709 199.404L274.167 201.431C273.775 201.606 273.356 201.715 272.928 201.754L270.751 202.731C270.248 203.265 269.601 203.65 268.878 203.831L267.359 204.207C267.051 204.284 266.74 204.319 266.428 204.319C265.986 204.319 265.544 204.242 265.121 204.092L257.201 203.711C256.571 204.158 255.82 204.403 255.048 204.415L244.132 204.604C243.59 204.881 242.99 205.019 242.39 205.019C241.505 205.019 240.621 204.719 239.898 204.104L235.494 200.354L232.094 200.931C231.636 201.204 231.128 201.381 230.594 201.446L225.836 202.031C225.217 202.419 224.509 202.615 223.794 202.615C223.226 202.616 222.665 202.491 222.151 202.25L215.978 199.331L205.124 200.723L197.567 207.919C197.329 208.146 197.063 208.341 196.774 208.5L186.778 218.7C186.239 219.254 185.544 219.631 184.786 219.781L178.967 220.946C178.717 220.996 178.467 221.019 178.213 221.019C178.091 221.02 177.969 221.014 177.848 221.004L170.39 220.296C169.905 220.246 169.444 220.111 169.024 219.9L152.755 219.673L146.986 223.627L141.121 227.261L139.851 228.934C139.105 229.911 137.963 230.45 136.786 230.45C136.344 230.45 135.89 230.373 135.455 230.211L135.313 230.161H131.909C131.484 230.382 131.023 230.523 130.548 230.577L117.421 232.05L112.505 237.688C112.167 238.078 111.752 238.395 111.288 238.621C110.823 238.846 110.317 238.975 109.801 239L101.805 239.411L92.863 243.015L62.0322 274.907C61.2938 275.673 60.2899 276.08 59.2668 276.08" fill="#CE1141"/>
<path d="M265.418 119.231C265.283 119.231 265.149 119.235 265.014 119.242L241.445 120.481C240.897 120.358 240.337 120.296 239.776 120.296C239.572 120.296 239.372 120.304 239.168 120.319L234.403 120.696C233.673 120.753 232.955 120.915 232.272 121.177L223.395 121.846C222.854 121.727 222.303 121.666 221.749 121.666C220.43 121.666 219.103 122.008 217.903 122.696L200.337 132.839L194.422 132.285C194.183 132.262 193.943 132.25 193.703 132.25C193.083 132.25 192.468 132.323 191.868 132.469L178.691 132.554C178.268 132.469 177.837 132.416 177.399 132.404L174.818 132.316C173.703 131.739 172.487 131.45 171.272 131.45C169.57 131.45 167.917 132.016 166.572 133.058L150.057 145.816C149.541 146.216 149.08 146.673 148.684 147.181L147.899 147.804L145.753 146.785C144.745 146.308 143.664 146.058 142.58 146.039L141.868 145.831C141.159 145.62 140.423 145.512 139.683 145.512C139.049 145.512 138.414 145.592 137.795 145.746C137.795 145.746 134.837 146.496 131.876 147.262C130.141 147.708 128.66 148.089 127.403 148.466C125.703 148.196 122.772 147.719 119.814 147.231C118.63 146.554 117.314 146.219 115.999 146.219C113.991 146.219 111.995 147 110.495 148.535L109.341 149.719L106.126 151.258C105.064 151.769 104.141 152.512 103.426 153.419L95.8797 159.181L83.3681 168.192L69.1028 178.796L62.7681 183.416C61.9145 184.037 61.1981 184.828 60.6634 185.738C60.1288 186.649 59.7873 187.66 59.6604 188.708L59.4643 190.331L57.2258 195.527C57.022 195.989 56.872 196.473 56.7643 196.966L55.6181 202.331C55.5912 202.446 55.5681 202.566 55.5528 202.681L53.7874 213.3L52.7874 217.769C52.7035 218.149 52.6482 218.535 52.622 218.923L52.2566 224.296L50.7374 235.731C50.6984 236 50.6765 236.271 50.672 236.542L50.0028 262.154C49.972 263.308 50.1989 264.454 50.6758 265.508L50.7951 265.777L51.1643 271.427C51.1681 271.504 51.1758 271.581 51.1835 271.658C51.5451 275.446 53.2566 277.485 54.9181 278.577C55.3681 278.889 55.8604 279.154 56.3797 279.366C57.3181 279.743 58.2951 279.927 59.2643 279.927C61.3104 279.927 63.3181 279.112 64.7951 277.581L95.0604 246.277L102.645 243.216L109.995 242.843C112.08 242.735 114.03 241.789 115.399 240.216L119.337 235.704L130.976 234.396C131.558 234.332 132.131 234.2 132.683 234.004H134.687C135.38 234.204 136.087 234.296 136.787 234.296C139.141 234.296 141.426 233.216 142.91 231.262L143.753 230.158L148.857 226.996C148.959 226.935 149.06 226.87 149.157 226.8L153.922 223.535L168.237 223.735C168.81 223.935 169.407 224.066 170.026 224.123L177.483 224.831C178.231 224.902 178.985 224.863 179.722 224.716L185.541 223.55C187.053 223.246 188.445 222.496 189.526 221.392L199.191 211.527C199.556 211.282 199.9 211.007 200.218 210.704L206.864 204.377L215.349 203.289L220.507 205.723C221.533 206.21 222.655 206.462 223.791 206.462C224.901 206.461 225.997 206.222 227.007 205.762L231.06 205.262C231.845 205.166 232.61 204.95 233.322 204.623L234.368 204.446L237.403 207.031C238.853 208.262 240.622 208.866 242.387 208.866C243.249 208.866 244.11 208.723 244.93 208.435L255.11 208.258C256.145 208.242 257.16 208.016 258.095 207.604L264.457 207.908C265.099 208.081 265.764 208.166 266.43 208.166C267.049 208.166 267.672 208.093 268.284 207.939L269.807 207.562C270.953 207.273 272.014 206.731 272.903 205.981L274.01 205.481C274.604 205.37 275.182 205.191 275.733 204.946L280.276 202.919C280.758 202.701 281.218 202.435 281.649 202.127L285.072 200.831C285.852 200.537 286.579 200.119 287.226 199.592L298.683 195.215L300.353 196.031C301.107 196.4 301.916 196.643 302.749 196.75L305.503 198.3C306.652 198.947 307.949 199.286 309.268 199.285C310.922 199.285 312.557 198.754 313.899 197.742C314.033 197.689 314.164 197.635 314.295 197.573L316.31 196.639L316.395 196.619L322.58 198.235C323.214 198.4 323.868 198.481 324.522 198.481C324.591 198.481 324.66 198.481 324.73 198.477C325.31 198.723 325.922 198.892 326.557 198.989L331.622 199.746L336.614 201.669C337.496 202.008 338.432 202.181 339.376 202.181C339.549 202.181 339.726 202.173 339.903 202.162C339.903 202.162 340.345 202.131 340.91 202.092C341.839 202.474 342.833 202.67 343.837 202.669C344.968 202.67 346.084 202.42 347.107 201.939C350.341 201.542 358.107 200.612 362.376 200.254C365.595 200.016 368.876 199.681 372.053 199.354L373.626 199.196L374.468 199.116C376.291 198.943 378.133 198.769 379.968 198.562C383.976 198.108 385.999 195.835 386.849 194.523C387.695 193.212 388.933 190.45 387.726 186.689C387.322 185.427 386.949 184.192 386.58 182.966C385.895 180.7 385.191 178.366 384.307 175.923C383.98 175.035 383.695 174.181 383.41 173.323C382.707 171.227 381.914 168.85 380.745 166.485C380.514 165.989 380.237 165.108 379.937 164.177C379.718 163.466 379.487 162.758 379.237 162.058C379.003 161.423 378.776 160.9 378.545 160.381C378.433 160.127 378.314 159.881 378.222 159.616C376.772 155.485 375.003 152.116 373.295 148.858C372.872 148.054 372.441 147.235 372.014 146.396C371.891 146.123 371.753 145.854 371.58 145.531L371.472 145.335C371.453 145.3 371.399 145.196 371.38 145.162C370.98 144.416 369.926 142.439 367.418 141.066C366.203 140.362 364.699 139.958 363.099 139.958C362.26 139.958 361.583 140.069 361.137 140.142L360.833 140.192C358.63 140.446 357.049 140.569 356.641 140.573C355.71 140.573 353.76 140.716 349.953 141.019C349.51 140.942 349.06 140.9 348.61 140.9H345.599L336.814 139.754C334.814 139.466 329.764 138.292 326.837 137.566L321.464 135.712L314.437 133.316C313.639 133.042 312.801 132.903 311.957 132.904C311.41 132.904 310.864 132.962 310.33 133.077L302.664 132.481L298.645 129.419C298.114 129.019 297.541 128.689 296.93 128.435L296.045 127.639C294.91 125.562 292.857 124.077 290.43 123.716L286.164 123.077C285.918 123.042 285.676 123.016 285.426 123.004L284.876 122.812C283.639 122.024 282.204 121.605 280.737 121.604C280.55 121.604 280.363 121.612 280.176 121.627L273.93 122.085L268.318 119.8C267.397 119.424 266.412 119.231 265.418 119.231ZM265.414 126.923L272.695 129.889L280.737 129.296L281.133 129.658L284.633 130.866L285.026 130.685L289.291 131.323L289.441 132.042L293.272 135.496L293.987 135.542L300.133 140.223L300.476 140.027L311.422 140.877L311.957 140.596L318.957 142.985L324.649 144.95C324.649 144.95 332.437 146.892 335.822 147.385L345.099 148.592H348.61L349.283 148.789C352.164 148.558 355.791 148.266 356.657 148.266C357.603 148.266 359.93 148.039 361.764 147.827C362.357 147.754 362.757 147.65 363.099 147.65C363.318 147.65 363.514 147.689 363.722 147.812C364.249 148.1 364.422 148.466 364.633 148.858C364.837 149.25 364.953 149.427 365.049 149.673C367.21 153.912 369.345 157.554 370.937 162.073C371.233 162.958 371.668 163.769 371.999 164.654C372.626 166.404 373.06 168.223 373.845 169.889C375.222 172.669 376.01 175.642 377.072 178.539C378.349 182.069 379.253 185.458 380.403 189.039C380.818 190.331 380.241 190.789 379.118 190.919C377.022 191.154 374.926 191.346 372.849 191.542C369.137 191.915 365.445 192.312 361.741 192.589C356.045 193.062 344.672 194.489 344.672 194.489L343.833 194.977C343.833 194.977 342.787 194.258 342.741 194.258C342.707 194.258 339.376 194.489 339.376 194.489L333.599 192.266L327.691 191.381L326.226 190.396L324.522 190.789L316.487 188.696L313.349 189.435L313.257 189.577L311.06 190.592L310.933 190.546L309.591 191.185L309.272 191.592L304.93 189.15L303.73 189.119L299.826 187.208L299.153 186.469L298.633 186.996L296.264 187.746L296.164 187.946L282.718 193.077L282.353 193.635L277.514 195.466L277.141 195.893L272.599 197.919L272.141 197.889L268.214 199.654L267.949 200.096L266.43 200.473L265.883 200.277L256.033 199.804L254.98 200.569L242.733 200.781L242.391 201.173L236.403 196.073L235.91 196.381L230.422 197.312L230.122 197.627L224.272 198.346L223.791 198.769L217.183 195.646L216.61 195.089L216.122 195.435L203.383 197.069L194.914 205.131L194.703 205.119L184.03 216.008L178.21 217.173L170.753 216.466L170.626 216.077L151.587 215.812L144.81 220.454L138.491 224.366L136.787 226.604L136.003 226.312H130.714L130.118 226.754L115.987 228.339L115.349 228.046L114.837 229.158L109.603 235.162L100.964 235.6L90.6643 239.754L59.2643 272.235C59.2643 272.204 59.2643 272.235 59.2335 272.204C58.9566 272.154 58.8412 270.927 58.8412 270.927L58.3797 263.892L57.6912 262.354L58.3604 236.746L59.9143 225.069L60.2951 219.442L61.3374 214.765L63.1374 203.939L64.2874 198.573L66.9681 192.362L67.2989 189.631L73.6912 184.969L87.8643 174.439L100.464 165.362L109.349 158.573L109.453 158.192L113.891 156.065L115.999 153.912L116.783 154.531C116.783 154.531 127.649 156.319 127.891 156.319H127.895C127.776 156.216 139.683 153.204 139.683 153.204L142.068 153.912L142.449 153.731L148.918 156.808L154.707 152.227L154.76 151.9L171.272 139.142L172.633 139.942L177.145 140.089L177.464 140.254L193.214 140.154L193.703 139.942L202.599 140.777L203.022 141.069L203.822 140.335L204.033 139.585L221.749 129.358L222.087 129.658L234.507 128.719L235.007 128.366L239.776 127.989L240.18 128.25L265.414 126.923" fill="white"/>
<path d="M157.022 394.623C156.704 394.623 156.388 394.584 156.08 394.508L143.226 391.262L142.837 391.508C142.508 391.721 142.147 391.881 141.768 391.981L138.434 393.815C137.867 394.129 137.231 394.293 136.583 394.292C135.833 394.292 135.084 394.073 134.437 393.638C134.437 393.638 133.749 393.177 133.145 392.773C132.458 392.712 131.8 392.469 131.237 392.069C131.103 392.035 130.972 391.989 130.841 391.942L122.168 388.581C122.145 388.585 122.126 388.585 122.122 388.585C121.364 388.585 120.63 388.312 120.003 387.873C117.322 387.042 115.807 386.565 114.884 386.208L114.868 386.25C114.599 386.154 111.041 384.958 110.653 384.823C109.98 384.754 109.457 384.677 108.872 384.408H108.876C108.226 384.104 107.299 383.465 106.787 382.177L99.6451 374.427L94.6643 368.046L88.9297 359.296L81.4989 349.019C80.7989 348.05 80.5874 346.808 80.9297 345.665L81.4605 343.885C81.672 343.18 82.0803 342.55 82.6374 342.069L88.1797 337.292C88.7874 336.769 89.5451 336.45 90.3412 336.373L104.03 335.127L113.403 312.404C113.307 311.127 113.853 309.873 114.876 309.077L131.422 296.2C131.902 295.827 132.464 295.573 133.061 295.458L133.157 295.439L141.868 288.708C141.999 288.454 142.157 288.219 142.341 287.996C142.702 287.567 143.153 287.223 143.661 286.986C144.169 286.75 144.723 286.627 145.284 286.627C145.422 286.627 145.561 286.635 145.699 286.65L146.507 286.735L148.607 285.85C149.084 285.646 149.591 285.546 150.107 285.546C150.16 285.546 152.691 285.654 152.691 285.654L156.095 284.969L163.76 276.673C164.121 276.284 164.559 275.973 165.045 275.761C165.532 275.549 166.057 275.439 166.587 275.439C166.664 275.439 174.641 275.919 174.641 275.919L175.753 275.535C176.158 275.392 176.585 275.319 177.014 275.319C177.164 275.319 177.314 275.327 177.464 275.346L184.849 276.219C196.137 269.95 200.449 267.554 202.168 266.612C202.933 265.723 204.057 265.1 205.18 265.1C205.234 265.1 205.811 265.131 205.811 265.131L215.868 263.381C216.485 262.968 217.207 262.742 217.949 262.731L220.149 262.696C220.149 262.696 233.245 247.765 233.253 247.754C233.411 247.454 233.607 247.173 233.837 246.919L244.13 235.704C244.294 235.218 244.554 234.771 244.895 234.389L247.13 231.873C247.49 231.467 247.933 231.142 248.428 230.92C248.923 230.697 249.46 230.581 250.003 230.581C250.091 230.581 262.841 231.45 262.841 231.45L263.726 230.696C264.307 230.204 265.014 229.892 265.768 229.804L267.637 229.585L273.676 226.035C274.268 225.689 274.941 225.504 275.626 225.504H275.672L287.23 216.589C287.76 216.177 288.399 215.912 289.072 215.823L301.153 214.227L306.491 209.265C307.087 208.715 307.833 208.365 308.633 208.265L313.557 204.638C313.834 204.158 314.211 203.738 314.672 203.415C315.326 202.95 316.103 202.712 316.887 202.712C317.287 202.712 317.687 202.773 318.076 202.896L320.072 203.546L341.93 204.135L357.276 198.785C357.541 198.696 357.811 198.631 358.084 198.6C360.73 198.281 363.307 198.046 365.88 197.812C368.714 197.554 371.545 197.296 374.468 196.919L375.003 196.854C375.899 196.746 376.991 196.619 377.799 196.454C378.099 196.396 378.368 196.358 378.611 196.323C379.557 196.2 380.191 196.154 380.737 196.154C385.849 196.154 386.776 200.504 387.126 202.142C387.568 204.173 387.922 206.1 388.291 208.081L389.087 212.419C389.449 214.4 389.81 216.4 390.11 218.385C390.637 221.869 391.134 225.327 391.503 228.858C391.68 230.758 391.772 232.604 391.864 234.45L392.014 237.208L392.08 237.939C392.13 238.454 392.18 238.965 392.199 239.481L392.549 246.027C392.561 246.258 392.587 246.446 392.614 246.631C392.684 247.15 392.745 247.654 392.745 248.289C392.745 249.135 392.718 249.442 392.672 250.012C392.561 250.981 392.364 252.635 390.841 254.046C389.441 255.246 388.037 255.446 387.364 255.546C386.58 255.665 385.268 255.835 385.268 255.835L382.641 255.996L378.622 256.665L375.287 257.281C374.891 257.4 372.826 258.008 372.826 258.008C371.122 258.589 369.353 259.192 367.584 259.835C366.953 260.065 366.322 260.262 365.68 260.462C365.014 260.669 364.33 260.885 363.645 261.142C360.549 262.335 352.934 265.904 352.857 265.939C352.341 266.177 351.787 266.304 351.222 266.304C351.072 266.304 350.922 266.296 350.772 266.277L348.984 266.065L346.014 265.646C345.649 265.592 345.299 265.492 344.968 265.342C344.268 265.242 343.211 265.1 342.307 264.977L341.822 265.45C341.593 265.671 341.337 265.862 341.061 266.019L338.753 268.75C338.195 269.4 337.445 269.854 336.607 270.027L330.018 271.415C329.661 271.658 329.257 271.846 328.834 271.958L324.841 273.031L323.349 275.869L323.368 276.304C323.437 277.877 322.537 279.335 321.095 279.981L310.476 284.735C309.83 285.427 308.949 285.865 307.999 285.946C307.886 285.957 307.773 285.962 307.661 285.962C306.84 285.961 306.041 285.7 305.38 285.215L299.78 284.965L295.11 288.215C294.599 288.57 294.009 288.795 293.391 288.873L287.603 289.592L284.307 291.019L283.03 295.327C282.853 295.921 282.535 296.464 282.103 296.908C281.626 298.335 280.353 299.362 278.834 299.512L278.441 299.55L262.653 306.808C262.268 307.269 261.784 307.639 261.234 307.877L256.03 310.165C255.772 310.28 255.502 310.365 255.226 310.419C254.449 310.858 253.249 311.577 253.241 311.585C252.814 311.839 252.349 312.008 251.864 312.081C251.772 312.146 251.676 312.204 251.576 312.262L247.76 314.431L245.368 319.069C245.052 319.68 244.578 320.195 243.995 320.562L238.018 330.246C237.895 331.923 236.691 333.339 235.037 333.715L234.184 333.912C233.957 334.042 233.726 334.146 233.514 334.208L230.284 335.169L228.395 342.062L228.78 343.439C229.068 344.481 228.911 345.596 228.337 346.512C227.872 347.262 227.164 347.819 226.341 348.108L224.518 349.992C221.872 352.819 220.868 353.892 220.041 354.304L217.726 356.712L212.376 361.604C212.345 361.669 212.311 361.731 212.28 361.796C212.091 362.154 211.845 362.477 211.557 362.758C211.495 362.815 208.111 365.954 208.111 365.954C207.807 366.235 207.464 366.465 207.095 366.635C206.249 367.489 204.887 368.873 203.864 369.885L194.453 385.05C194.142 385.551 193.719 385.974 193.218 386.287C192.717 386.599 192.152 386.791 191.564 386.85L168.741 389.1L158.776 394.204C158.226 394.481 157.626 394.623 157.022 394.623" fill="#CE1141"/>
<path d="M380.737 192.308C380.03 192.308 379.264 192.361 378.322 192.481C378.287 192.485 378.145 192.504 378.11 192.508C377.783 192.554 377.441 192.608 377.091 192.673C376.33 192.827 375.376 192.935 374.584 193.031L374.007 193.104C371.153 193.469 368.426 193.715 365.537 193.981C362.926 194.219 360.31 194.458 357.626 194.781C357.076 194.846 356.534 194.969 356.01 195.154L341.33 200.269L320.726 199.715L319.264 199.238C318.496 198.992 317.694 198.865 316.887 198.861C315.314 198.861 313.764 199.346 312.449 200.273C311.795 200.734 311.217 201.294 310.737 201.935L307.01 204.681C305.839 205.013 304.763 205.62 303.872 206.45L299.434 210.577L288.568 212.011C287.224 212.189 285.95 212.719 284.876 213.546L274.184 221.796C273.322 221.958 272.491 222.273 271.73 222.719L266.387 225.858L265.318 225.985C263.95 226.146 262.651 226.672 261.557 227.508L250.53 226.754C250.354 226.742 250.179 226.735 250.003 226.735C248.916 226.734 247.842 226.965 246.85 227.41C245.859 227.856 244.974 228.506 244.253 229.319L242.018 231.835C241.548 232.366 241.152 232.958 240.841 233.596L231.003 244.315C230.667 244.686 230.366 245.086 230.103 245.511L218.38 258.877L217.884 258.885C216.72 258.904 215.576 259.186 214.537 259.712L205.58 261.269L205.545 261.265C205.408 261.258 205.271 261.254 205.134 261.254C202.984 261.254 200.964 262.158 199.53 263.677C197.295 264.904 192.922 267.331 184.064 272.254L177.914 271.527C177.614 271.492 177.314 271.473 177.014 271.473C176.157 271.473 175.303 271.619 174.491 271.9L174.103 272.035L167.053 271.608C166.895 271.6 166.741 271.592 166.584 271.592C164.449 271.592 162.399 272.485 160.937 274.062L154.114 281.446L152.387 281.792L150.445 281.708C150.33 281.704 150.218 281.7 150.107 281.7C149.076 281.7 148.057 281.904 147.11 282.308L145.926 282.808C145.712 282.789 145.498 282.78 145.284 282.781C143.03 282.781 140.876 283.773 139.403 285.515C139.245 285.7 139.099 285.896 138.96 286.092L131.433 291.912C130.576 292.185 129.772 292.612 129.057 293.162L112.514 306.039C110.749 307.412 109.695 309.462 109.56 311.635L101.364 331.508L89.9913 332.542C88.3953 332.693 86.8851 333.334 85.6682 334.377L80.1259 339.154C79.0108 340.114 78.1951 341.374 77.7759 342.785L77.2451 344.562C76.9072 345.692 76.8339 346.885 77.0306 348.048C77.2273 349.211 77.6889 350.313 78.3797 351.269L85.8067 361.554L91.2643 369.896C91.3782 370.072 91.5001 370.243 91.6297 370.408L96.3951 376.542C96.5259 376.712 96.6681 376.877 96.8143 377.039L103.534 384.319C104.422 386.058 105.814 387.223 107.241 387.889C108.214 388.342 109.107 388.512 109.807 388.6C110.203 388.735 110.676 388.896 111.249 389.089C112.23 389.419 113.26 389.762 113.56 389.873L113.58 389.827C114.63 390.223 116.072 390.681 118.11 391.315C119.137 391.927 120.264 392.281 121.36 392.392L129.449 395.527C129.495 395.546 129.545 395.565 129.591 395.581C130.242 395.962 130.946 396.246 131.68 396.423C132.026 396.65 132.291 396.831 132.291 396.831C133.584 397.7 135.08 398.139 136.584 398.139C137.877 398.139 139.15 397.812 140.284 397.189L143.299 395.531C143.449 395.481 143.599 395.423 143.745 395.362L155.141 398.239C155.755 398.391 156.385 398.469 157.018 398.469C158.238 398.47 159.44 398.18 160.526 397.623L169.845 392.858L191.941 390.677C194.322 390.439 196.46 389.108 197.722 387.077L206.895 372.292C207.74 371.45 208.581 370.604 209.418 369.754C209.887 369.475 210.325 369.147 210.726 368.777C210.726 368.777 214.253 365.504 214.318 365.435C214.749 365.008 215.122 364.531 215.437 364.015L220.141 359.727C220.264 359.615 220.384 359.496 220.499 359.377L222.537 357.254C223.81 356.381 225.184 354.912 227.372 352.573L228.584 351.319C229.821 350.688 230.863 349.732 231.599 348.554C232.741 346.719 233.064 344.492 232.484 342.412L232.384 342.054L233.43 338.246L234.61 337.896C234.932 337.8 235.246 337.683 235.553 337.546L235.891 337.469C238.837 336.796 241.072 334.477 241.699 331.604L246.88 323.212C247.66 322.558 248.314 321.75 248.787 320.835L250.657 317.208L253.322 315.696C253.981 315.51 254.613 315.24 255.203 314.892C255.214 314.885 255.999 314.415 256.687 314.015C256.991 313.927 257.287 313.815 257.58 313.689L262.784 311.396C263.572 311.054 264.291 310.577 264.918 310L279.472 303.312C282.107 302.962 284.341 301.281 285.434 298.927C286.009 298.176 286.443 297.326 286.714 296.419L287.48 293.835L288.622 293.342L293.864 292.692C295.103 292.537 296.286 292.083 297.31 291.369L300.91 288.865L304.257 289.012C305.315 289.535 306.48 289.808 307.66 289.808C307.891 289.808 308.122 289.796 308.353 289.773C309.945 289.631 311.437 288.996 312.641 287.981L322.668 283.492C325.349 282.292 327.095 279.681 327.21 276.785L327.46 276.308L329.83 275.677C330.385 275.527 330.921 275.315 331.43 275.046L337.395 273.796C339.072 273.442 340.587 272.542 341.691 271.231L343.553 269.031C343.703 269.05 343.853 269.069 343.991 269.089C344.468 269.258 344.964 269.381 345.468 269.45L348.353 269.862L350.314 270.096C350.616 270.131 350.919 270.149 351.222 270.15C352.349 270.15 353.464 269.9 354.491 269.419C356.587 268.439 362.564 265.681 365.041 264.727C365.626 264.504 366.234 264.319 366.83 264.131C367.518 263.919 368.199 263.7 368.864 263.462C370.641 262.819 372.38 262.219 374.122 261.635C374.418 261.539 374.83 261.423 375.237 261.304C375.553 261.215 375.872 261.123 376.191 261.027L379.387 260.435L383.06 259.823L385.226 259.7C385.405 259.689 385.583 259.672 385.76 259.65C385.76 259.65 387.114 259.473 387.626 259.4C387.722 259.385 387.818 259.369 387.91 259.35C388.876 259.208 391.137 258.854 393.226 257.069C393.304 257.006 393.38 256.939 393.453 256.869C396.026 254.489 396.349 251.712 396.453 250.796C396.464 250.723 396.495 250.473 396.499 250.396C396.561 249.677 396.591 249.315 396.591 248.289C396.591 247.331 396.491 246.596 396.426 246.108C396.414 246.015 396.395 245.923 396.387 245.815L396.207 242.454L396.041 239.25C396.018 238.754 395.964 238.177 395.91 237.604L395.849 236.892C395.795 236.058 395.749 235.146 395.707 234.235C395.61 232.342 395.514 230.45 395.334 228.542C394.937 224.746 394.418 221.142 393.91 217.796C393.611 215.773 393.23 213.7 392.857 211.658L392.495 209.65L392.068 207.373C391.699 205.362 391.337 203.4 390.887 201.319C389.214 193.481 383.81 192.308 380.737 192.308V192.308ZM380.737 200C382.403 200 382.891 200.696 383.368 202.942C383.964 205.704 384.399 208.242 384.922 211.004C385.387 213.619 385.91 216.3 386.303 218.95C386.826 222.389 387.314 225.789 387.676 229.254C387.93 232 388.007 234.719 388.176 237.446C388.23 238.189 388.326 238.923 388.357 239.658C388.476 241.846 388.591 244.039 388.707 246.235C388.749 247.019 388.899 247.508 388.899 248.289C388.899 249 388.876 249.242 388.834 249.735C388.772 250.189 388.784 250.712 388.23 251.223C387.676 251.696 386.953 251.696 386.495 251.789C386.026 251.862 384.784 252.019 384.784 252.019L382.207 252.169L377.991 252.873L374.364 253.539C373.46 253.827 372.599 254.046 371.664 254.342C369.864 254.954 368.064 255.569 366.268 256.223C364.991 256.681 363.653 257.027 362.276 257.546C359.003 258.812 351.222 262.458 351.222 262.458L349.434 262.246L346.549 261.839L346.276 261.639C346.276 261.639 341.041 260.919 340.976 260.919C340.934 260.954 339.149 262.685 339.149 262.685L338.776 262.769L335.814 266.265L328.11 267.885L327.837 268.246L322.218 269.75L319.46 275L319.526 276.469L308.087 281.589L307.66 282.115L306.864 281.427L298.649 281.069L292.914 285.058L286.587 285.846L281.13 288.196L279.341 294.231L278.668 294.739L278.457 295.685L277.426 295.789L260.126 303.735L259.684 304.358L254.484 306.646H254.153C254.018 306.646 251.272 308.281 251.272 308.281L250.314 308.135L249.676 308.919L244.864 311.654L241.949 317.308L241.303 317.608L234.214 329.085L234.184 329.969L232.618 330.323L232.418 330.523L227.137 332.092L224.403 342.073L225.076 344.477L224.384 344.604L221.757 347.315C221.757 347.315 218.584 350.704 218.499 350.704C218.414 350.723 217.787 351.1 217.787 351.1L214.953 354.042L208.88 359.589C208.88 359.589 208.914 359.931 208.88 359.996C208.818 360.058 205.495 363.135 205.495 363.135L205.126 363.146C205.126 363.146 202.38 365.95 200.837 367.469L191.187 383.019L167.641 385.346L157.022 390.777L142.549 387.127L140.76 388.273L140.572 388.254L136.584 390.446C136.584 390.446 134.387 388.973 134.326 388.942H133.472L132.953 388.323L132.23 388.354L122.695 384.658C122.695 384.658 122.153 384.739 122.122 384.739C122.057 384.739 121.995 384.462 121.995 384.462C121.995 384.462 116.268 382.692 116.249 382.665C116.214 382.631 111.587 381.092 111.545 381.065C111.514 381.027 110.622 380.977 110.48 380.915C110.31 380.865 110.268 380.277 110.268 380.277L102.468 371.819L97.7028 365.689L92.1489 357.196L84.6143 346.765L85.1451 344.985L90.6913 340.208L107.568 338.665L107.16 337.627L117.376 312.858L117.237 312.112L133.784 299.235L134.784 299.042L145.391 290.846L145.284 290.473L147.084 290.669L150.107 289.392L152.987 289.519L158.072 288.492L166.587 279.285L175.172 279.808L177.014 279.165L185.63 280.185C185.63 280.185 204.764 269.554 204.849 269.523C204.891 269.485 205.134 268.946 205.134 268.946L206.041 268.996L217.699 266.969L218.007 266.577L221.914 266.512L236.118 250.323L236.557 250.223L236.672 249.519L247.822 237.369L247.772 236.942L250.003 234.427L262.899 235.308L263.591 235.862L266.222 233.623L268.891 233.308L275.626 229.35L276.934 229.389L289.576 219.639L303.426 217.808L303.726 217.089L309.11 212.085L310.068 211.989L316.876 206.965L316.887 206.558L319.41 207.373L342.53 207.996L358.541 202.415C364.118 201.746 369.376 201.454 374.96 200.735C376.022 200.604 377.514 200.439 378.568 200.223C378.81 200.177 379.057 200.146 379.28 200.112C379.853 200.042 380.33 200 380.737 200Z" fill="white"/>
<path d="M245.031 445.285L242.627 445.189L237.654 445.108L233.15 444.892L226.619 444.358C222.127 443.862 219.231 443.546 219.231 439.954C219.231 439.227 219.435 438.512 219.823 437.896L220.996 436.046C221.324 435.533 221.766 435.104 222.289 434.792L232.173 428.942C232.745 428.604 233.394 428.419 234.058 428.404L238.308 425.892C238.366 425.477 238.492 424.527 238.6 423.727C238.235 422.946 238.135 422.065 238.331 421.215C238.566 420.2 239.204 419.315 240.104 418.777C244.754 416 247.266 414.492 248.739 413.677C250.181 411.662 254.827 405.1 256.481 402.762C256.566 402.239 256.75 401.735 257.042 401.285L259.577 397.308C259.94 396.738 260.447 396.275 261.046 395.965L269.719 382.227C269.692 381.462 269.889 380.692 270.312 380.023L271.127 374.516C271.008 373.896 271.042 373.254 271.235 372.654L273.892 364.142C274.004 363.796 274.162 363.469 274.358 363.162L276.2 354.804C276.589 353.039 278.15 351.781 279.958 351.781H280.819L287.773 348.454C287.589 347.792 287.588 347.093 287.769 346.431L295.035 319.573C295.215 318.896 295.58 318.282 296.089 317.8L297.1 316.835L298.796 310.065C298.996 309.277 299.439 308.565 300.062 308.046L302.889 305.689C303.366 305.292 303.927 305.016 304.523 304.885L321.539 293.942L322.408 292.515C322.485 291.949 322.688 291.408 323.002 290.93C323.315 290.452 323.731 290.05 324.219 289.754L327.135 284.639C327.235 283.933 327.528 283.269 327.981 282.719C328.196 281.308 329.177 280.104 330.581 279.642L338.727 276.946C339.277 276.589 339.9 276.35 340.512 276.312L341.731 276.239L345.731 271.985C346.043 271.655 346.41 271.381 346.816 271.177C350.219 269.485 357.693 265.842 358.481 265.462C359.792 264.842 361.173 264.308 362.546 263.785C363.546 263.404 364.542 263.023 365.485 262.604C367.489 261.715 369.531 261.131 371.5 260.569L372.489 260.281C373.954 259.873 375.392 259.546 376.835 259.219L378.685 258.796C378.962 258.689 379.554 258.592 380.162 258.516L383.446 258.004C383.527 257.992 385.935 257.692 386.442 257.692C388.146 257.692 389.75 258.381 390.835 259.589C392.342 261.185 392.25 263.35 392.208 264.277L392.116 267.096C391.985 270.358 391.835 273.596 391.562 276.808C391.412 278.612 391.154 280.404 390.885 282.192L390.373 285.765C389.981 288.489 389.589 291.219 389.154 293.942C388.681 297.104 388.139 300.277 387.592 303.473L387.404 304.55C387.304 305.2 387.173 306.065 386.827 306.965C385.889 309.442 385.296 312.062 384.673 314.839C384.323 316.396 383.973 317.954 383.562 319.496C381.746 326.381 380.012 331.931 378.1 336.958C376.45 341.242 374.673 345.473 372.889 349.708L371.635 352.685C370.319 355.839 368.639 358.792 367.016 361.642L366.708 362.189C365.162 364.869 363.716 367.569 362.269 370.266L360.973 372.677C359.6 375.262 357.962 377.658 356.381 379.977C355.806 380.81 355.238 381.647 354.677 382.489L353.65 384.069C352.427 385.946 351.204 387.827 349.912 389.665C348.912 391.092 347.727 392.504 346.473 393.758C346.073 394.162 345.642 394.562 345.208 394.969C344.339 395.785 343.512 396.554 343.027 397.327C342.389 398.315 341.7 399.039 341.092 399.673L340.269 400.512C339.715 401.054 339.192 401.565 339.039 401.946C338.658 402.908 338 403.539 337.65 403.877L332.758 408.766C331.081 410.415 329.427 412.027 327.742 413.631C323.212 417.927 318.258 421.681 313.465 425.315L311.804 426.577C308.427 429.104 301.485 432.777 301.192 432.931L298.292 434.596C298.127 434.689 297.958 434.777 297.781 434.842L289.185 438.246L282.108 440.327L275.831 442.042L267.258 443.565L253.231 445.258C253.231 445.258 248.996 445.385 248.962 445.385C248.931 445.385 245.031 445.285 245.031 445.285" fill="#CE1141"/>
<path d="M386.607 254.612C386.261 254.612 385.68 254.612 383.18 254.947L379.78 255.478C379.304 255.535 378.6 255.635 377.784 255.859L376.23 256.216C374.696 256.562 373.173 256.912 371.665 257.332L370.63 257.628C368.623 258.208 366.35 258.858 364.103 259.847C363.203 260.251 362.277 260.601 361.346 260.955C359.938 261.493 358.492 262.047 357.015 262.747C356.184 263.147 348.681 266.809 345.265 268.509C344.453 268.913 343.718 269.459 343.096 270.12L340.134 273.266C339.023 273.378 337.965 273.731 337.019 274.281L329.538 276.755C327.08 277.566 325.261 279.524 324.565 281.897C324.157 282.559 323.854 283.278 323.657 284.028L321.454 287.901C320.23 288.924 319.354 290.301 318.946 291.843L318.88 291.955L303.092 302.112C302.188 302.412 301.342 302.878 300.596 303.497L297.765 305.855C296.515 306.9 295.627 308.313 295.227 309.893L293.8 315.589L293.588 315.793C292.58 316.762 291.85 317.989 291.488 319.335L284.219 346.193C284.165 346.393 284.123 346.597 284.084 346.805L280.111 348.705C276.504 348.708 273.388 351.216 272.607 354.739L270.892 362.535C270.686 362.929 270.518 363.341 270.388 363.766L267.727 372.274C267.423 373.243 267.315 374.255 267.407 375.255L266.769 379.566C266.438 380.27 266.215 381.012 266.111 381.774L258.415 393.955C257.655 394.517 257.004 395.215 256.496 396.012L253.965 399.985C253.582 400.582 253.285 401.23 253.08 401.909C251.361 404.339 247.903 409.224 246.261 411.531C244.538 412.512 242.057 413.993 238.292 416.247C236.5 417.324 235.219 419.081 234.75 421.12C234.499 422.203 234.486 423.328 234.711 424.416L232.984 425.439C232.064 425.598 231.18 425.924 230.377 426.401L220.492 432.255C219.445 432.875 218.559 433.734 217.907 434.762L216.738 436.612C215.961 437.843 215.546 439.27 215.546 440.724C215.546 447.758 222.257 448.497 226.261 448.935C226.33 448.943 226.4 448.951 226.473 448.958L232.865 449.485C232.952 449.492 233.039 449.498 233.127 449.501L237.507 449.716C237.592 449.72 237.677 449.724 237.761 449.724L242.73 449.801L244.984 449.889L248.927 449.997C248.992 450.001 249.061 450.001 249.127 450.001C249.196 450.001 249.265 450.001 249.334 449.997L253.142 449.893C253.381 449.89 253.62 449.873 253.857 449.843L267.677 448.178C267.815 448.162 267.95 448.139 268.088 448.12L276.311 446.678C276.546 446.635 276.777 446.581 277.011 446.52L283.223 444.824L290.084 442.828C290.315 442.758 290.538 442.678 290.765 442.593L299.361 439.185C299.713 439.046 300.053 438.882 300.38 438.693L300.996 438.339L303.269 437.043C304.43 436.424 310.85 432.985 314.25 430.443L315.965 429.139C320.834 425.447 325.869 421.628 330.55 417.193C332.261 415.566 333.927 413.939 335.6 412.293L337.696 410.197C338.561 409.331 339.423 408.462 340.3 407.601C340.357 407.547 340.411 407.489 340.465 407.431C340.961 406.955 341.911 406.024 342.596 404.547C342.761 404.374 342.942 404.209 343.119 404.039L343.523 403.639C343.592 403.57 343.665 403.497 343.734 403.424L344.057 403.085C344.7 402.405 345.584 401.474 346.384 400.239C346.669 399.789 347.377 399.128 348 398.547C348.469 398.112 348.934 397.674 349.377 397.224C350.761 395.843 352.092 394.255 353.223 392.647C354.55 390.755 355.8 388.832 357.054 386.909L358.069 385.351C358.61 384.539 359.157 383.731 359.711 382.928C361.357 380.516 363.057 378.028 364.546 375.232L365.769 372.951C367.265 370.159 368.68 367.52 370.192 364.901L370.507 364.339C372.196 361.378 373.938 358.316 375.354 354.924L376.534 352.12C378.319 347.889 380.161 343.516 381.854 339.12C383.811 333.955 385.588 328.278 387.45 321.232C387.869 319.662 388.23 318.058 388.592 316.455C389.184 313.812 389.742 311.316 390.588 309.089C391.077 307.812 391.257 306.651 391.373 305.882L391.496 305.159C392.065 301.847 392.627 298.562 393.127 295.247C393.573 292.474 393.98 289.628 394.384 286.781L394.615 285.181L394.857 283.539C395.123 281.735 395.396 279.866 395.561 277.897C395.842 274.555 395.996 271.185 396.127 268.043L396.165 267.031L396.211 265.351C396.269 264.07 396.431 260.516 393.742 257.659C392.046 255.77 389.407 254.612 386.607 254.612ZM386.607 262.305C387.011 262.305 387.669 262.405 388.138 262.928C388.65 263.47 388.546 264.478 388.523 265.089C388.5 265.693 388.48 266.689 388.48 266.689C388.48 266.689 388.45 267.397 388.438 267.735C388.307 270.912 388.161 274.097 387.896 277.255C387.704 279.547 387.323 281.816 387.004 284.089C386.523 287.424 386.054 290.766 385.523 294.105C384.992 297.635 384.384 301.135 383.78 304.67C383.692 305.22 383.607 305.816 383.396 306.366C381.807 310.551 381.161 314.966 380.011 319.274C378.492 325.043 376.796 330.77 374.669 336.358C372.657 341.593 370.434 346.766 368.257 351.966C366.946 355.101 365.211 358.097 363.53 361.055C361.519 364.539 359.657 368.089 357.754 371.62C355.984 374.939 353.719 377.982 351.634 381.135C350.08 383.512 348.557 385.901 346.93 388.224C346.05 389.478 345.019 390.712 343.919 391.805C342.557 393.178 340.973 394.393 339.93 396.055C339.419 396.843 338.738 397.497 338.1 398.182C337.165 399.112 336.165 399.982 335.642 401.259C335.515 401.582 335.154 401.843 334.9 402.128C333.323 403.681 331.78 405.247 330.215 406.801C328.565 408.42 326.927 410.02 325.257 411.608C320.373 416.239 314.969 420.231 309.638 424.281C306.488 426.643 299.561 430.301 299.561 430.301L297.146 431.678L296.53 432.035L287.934 435.439L281.196 437.401L274.984 439.101L266.757 440.543L252.938 442.205L249.127 442.309L245.296 442.205L242.946 442.112L237.88 442.031L233.496 441.82L227.104 441.289C227.104 441.289 223.238 440.866 223.238 440.724L224.411 438.87L234.296 433.02L235.007 433.178L241.754 429.189L243.073 428.778L242.254 427.393C242.254 427.393 242.754 423.731 242.754 423.628L242.242 422.847C242.242 422.847 251.454 417.335 251.565 417.335C251.588 417.335 260.377 404.92 260.377 404.92L260.446 404.12L262.98 400.147L263.75 399.916L274.1 383.528L273.727 382.839L274.134 382.335L275.215 375.028L275.069 374.566L277.727 366.062L278.057 365.766L280.119 356.397H281.857L292.615 351.247L291.646 348.201L298.911 321.347L300.723 319.612L302.692 311.766L305.519 309.409L305.915 309.439L324.523 297.47C325.461 295.931 326.3 294.562 326.3 294.562L326.384 293.805L326.957 293.774L331.096 286.512L331.107 285.943L332.027 285.043L331.95 284.059L340.757 281.147L340.907 280.92L343.623 280.755L344.2 281.016L344.357 280.005L348.7 275.393C352.08 273.705 359.519 270.078 360.307 269.701C362.519 268.651 365 267.87 367.211 266.885C369.284 265.97 371.542 265.382 373.73 264.743C375.711 264.189 377.723 263.781 379.734 263.305C380.096 263.185 380.469 263.143 380.854 263.093L384.204 262.57C384.204 262.57 386.196 262.305 386.607 262.305Z" fill="white"/>
</svg>
