<svg width="500" height="500" viewBox="0 0 500 500" fill="none" xmlns="http://www.w3.org/2000/svg">
<path d="M250.002 434.616C171.486 434.616 101.402 384.752 75.6016 310.536C42.2323 214.392 93.3054 109.016 189.452 75.6437C209.059 68.8339 229.429 65.3848 249.998 65.3848C328.532 65.3848 398.613 115.245 424.394 189.456L425.271 191.967L425.248 191.994C456.875 287.442 405.875 391.273 310.575 424.353C290.952 431.167 270.575 434.616 250.002 434.616Z" fill="#C4CDD3"/>
<path d="M250.002 434.616C171.486 434.616 101.402 384.752 75.6016 310.536C42.2323 214.392 93.3054 109.016 189.452 75.6437C209.059 68.8339 229.429 65.3848 249.998 65.3848C328.532 65.3848 398.613 115.245 424.394 189.456L425.271 191.967L425.248 191.994C456.875 287.442 405.875 391.273 310.575 424.353C290.952 431.167 270.575 434.616 250.002 434.616" stroke="white" stroke-width="3.8462"/>
<path d="M403.046 294.61C399.003 308.495 393.211 321.391 386.023 333.168C377.576 302.598 358.088 271.022 333.015 242.175C335.276 238.329 337.865 234.452 340.823 230.318C347.665 222.891 350.888 229.779 350.888 229.779C356.38 214.883 352.888 207.383 350.226 204.175C349.23 202.702 348.03 202.172 348.03 202.172C345.726 191.695 336.23 186.195 336.23 186.195C336.23 186.195 339.503 171.475 337.919 156.237C389.269 177.683 404.442 216.479 408.853 236.837C410.43 255.764 408.673 275.287 403.046 294.61ZM334.584 385.064C333.438 366.475 330.346 351.452 330.346 351.452C332.015 352.129 336.199 355.137 336.199 355.137C335.403 320.364 320.784 308.118 321.184 289.152C321.515 273.272 323.684 262.225 327.876 252.302C353.249 282.183 372.203 314.568 378.284 344.675C366.284 360.933 351.384 374.549 334.584 385.064ZM93.8648 218.122C104.661 203.487 132.48 170.768 163.173 174.045C160.746 178.422 158.703 182.187 157.488 184.595C149.442 197.037 141.892 211.964 136.28 229.622C130.438 248.014 127.399 267.156 127.069 286.933C120.53 292.318 113.784 297.318 106.88 301.687C106.88 301.687 119.173 312.652 131.403 316.968C131.403 316.968 122.999 330.179 117.634 338.798C94.5648 304.345 85.0186 261.172 93.8648 218.122ZM131.915 142.929C135.438 142.687 140.446 142.502 146.434 142.668C160.999 143.975 166.276 147.991 174.734 153.537C172.631 157.217 170.539 160.903 168.457 164.595C141.384 159.299 117.015 177.183 100.811 193.995C108.049 174.675 118.703 157.472 131.915 142.929ZM203.892 97.4715C203.119 102.356 203.023 108.525 205.399 114.591C206.903 118.414 209.219 121.729 212.269 124.552C205.269 127.522 198.965 130.291 193.78 132.622C181.503 132.125 160.019 131.506 144.93 132.399C144.115 132.387 143.253 132.352 142.48 132.352C160.088 116.299 181.119 104.383 203.892 97.4715H203.892ZM215.003 94.5292C233.688 90.3062 253.315 89.3985 273.046 92.3023C280.219 93.3562 287.399 94.9177 294.557 97.0062C294.826 97.0831 295.084 97.1754 295.353 97.2523C285.292 98.8062 272.346 101.737 257.773 107.052C246.238 110.914 234.265 115.499 223.25 119.987C219.234 117.645 216.38 114.641 214.911 110.929C212.469 104.775 213.926 98.0062 215.003 94.5292ZM255.369 173.456C249.942 169.783 244.496 166.283 239.061 163.01C234.98 158.422 226.753 149.818 222.442 145.329C224.565 141.968 227.392 137.96 230.823 134.168C247.642 139.968 261.6 141.052 270.376 141.649C272.084 141.768 273.607 141.868 274.926 141.999L276.199 142.106C278.515 142.302 280.746 142.552 282.988 142.799C274.557 151.629 265.692 161.11 255.369 173.456ZM203.299 207.268C189.172 221.449 165.846 252.022 137.815 277.606C140.257 239.891 152.996 208.118 170.515 183.472C172.361 181.656 174.557 179.856 176.984 178.102C187.915 183.61 196.484 194.125 203.299 207.268ZM211.049 200.418C204.542 188.479 196.546 178.479 186.588 171.941C191.192 169.283 195.969 166.852 200.334 164.772C206.584 165.622 224.811 168.272 232.449 171.018C237.896 174.279 243.349 177.783 248.796 181.475C247.403 183.198 245.996 184.96 244.553 186.798C244.553 186.798 228.396 186.998 211.049 200.418ZM317.215 105.683L317.223 105.495C353.522 122.322 381.169 151.768 396.35 186.875C379.73 166.225 357.234 153.264 335.761 145.129C333.165 136.61 328.257 129.083 319.403 125.375C317.676 121.421 315.257 118.656 310.511 116.875C305.288 118.037 296.773 124.098 291.496 133.691C285.765 132.814 280.834 132.275 277.049 131.952L275.899 131.852C274.503 131.718 272.88 131.61 271.069 131.483C263.365 130.956 252.634 130.183 239.638 126.379C240.346 125.898 241.061 125.441 241.792 125.014C283.265 104.906 316.773 105.671 317.215 105.683ZM402.057 166.568C379.757 125.952 342.98 96.4522 298.488 83.4946C290.823 81.2676 282.953 79.5446 275.111 78.3906H275.107L275.092 78.3868C189.938 65.8445 107.542 118.795 83.4494 201.556C70.4956 246.045 75.6417 292.91 97.9379 333.529C120.238 374.148 157.019 403.648 201.503 416.602C209.176 418.837 217.046 420.556 224.899 421.71C242.307 424.275 259.584 424.06 276.288 421.46C276.496 421.56 276.696 421.679 276.903 421.775L277.103 421.333C341.761 410.937 397.453 364.118 416.549 298.541C429.503 254.056 424.357 207.187 402.057 166.568Z" fill="#002A5B"/>
<path d="M223.251 119.986C234.267 115.497 246.236 110.917 257.774 107.051C272.344 101.736 285.29 98.8051 295.355 97.2551C295.082 97.1743 294.828 97.0781 294.563 97.0051C287.397 94.9205 280.224 93.3589 273.047 92.3051C253.313 89.3974 233.686 90.3089 215.005 94.5321C213.928 98.0051 212.467 104.774 214.909 110.928C216.382 114.644 219.236 117.647 223.251 119.986ZM136.279 229.622C141.894 211.961 149.444 197.037 157.487 184.595C158.706 182.187 160.744 178.418 163.171 174.045C132.483 170.768 104.664 203.487 93.8674 218.122C85.0174 261.172 94.5674 304.345 117.637 338.799C122.998 330.18 131.402 316.968 131.402 316.968C119.171 312.653 106.883 301.691 106.883 301.691C113.787 297.318 120.533 292.318 127.067 286.934C127.398 267.157 130.437 248.014 136.279 229.622V229.622ZM142.482 132.354C143.251 132.358 144.113 132.385 144.924 132.401C160.02 131.504 181.501 132.124 193.778 132.62C198.967 130.289 205.27 127.52 212.27 124.554C209.22 121.727 206.905 118.416 205.401 114.589C203.024 108.524 203.12 102.354 203.894 97.4736C181.117 104.381 160.09 116.297 142.482 132.354H142.482ZM334.585 385.062C351.385 374.551 366.289 360.935 378.281 344.674C372.204 314.566 353.25 282.182 327.881 252.301C323.685 262.228 321.512 273.27 321.185 289.151C320.785 308.12 335.404 320.366 336.197 355.139C336.197 355.139 332.012 352.128 330.339 351.455C330.339 351.455 333.435 366.47 334.585 385.062ZM200.334 164.769C195.972 166.85 191.192 169.281 186.588 171.946C196.545 178.477 204.542 188.484 211.045 200.423C228.392 186.996 244.553 186.8 244.553 186.8C245.999 184.961 247.403 183.2 248.792 181.473C243.357 177.788 237.895 174.281 232.449 171.019C224.811 168.277 206.584 165.623 200.334 164.769ZM282.989 142.8C280.746 142.554 278.515 142.304 276.196 142.107L274.927 142C273.608 141.865 272.085 141.765 270.377 141.654C261.596 141.05 247.642 139.973 230.823 134.173C227.392 137.957 224.569 141.969 222.446 145.331C226.754 149.815 234.981 158.423 239.062 163.011C244.5 166.281 249.942 169.784 255.365 173.461C265.692 161.107 274.562 151.631 282.988 142.8" fill="#004F83"/>
<path d="M100.811 193.996C117.014 177.185 141.384 159.3 168.457 164.592C170.599 160.792 172.761 156.992 174.734 153.535C166.276 147.988 160.999 143.973 146.434 142.665C140.445 142.5 135.434 142.692 131.914 142.935C118.703 157.473 108.049 174.677 100.811 193.996ZM403.046 294.61C408.672 275.287 410.43 255.764 408.853 236.837C404.442 216.479 389.269 177.683 337.919 156.237C339.503 171.475 336.23 186.195 336.23 186.195C336.23 186.195 345.726 191.695 348.03 202.172C348.03 202.172 349.23 202.702 350.226 204.175C352.888 207.383 356.38 214.883 350.888 229.779C350.888 229.779 347.665 222.891 340.822 230.318C337.865 234.452 335.276 238.329 333.015 242.175C358.088 271.021 377.576 302.598 386.022 333.168C393.211 321.391 399.003 308.495 403.045 294.61" fill="#004F83"/>
<path d="M310.512 116.878C315.251 118.655 317.674 121.42 319.409 125.374C328.255 129.086 333.166 136.609 335.759 145.132C357.232 153.262 379.732 166.224 396.347 186.874C381.17 151.77 353.52 122.32 317.22 105.497L317.212 105.686C316.774 105.67 283.262 104.905 241.793 125.013C241.059 125.439 240.343 125.897 239.639 126.382C252.632 130.182 263.359 130.959 271.066 131.486C272.882 131.613 274.501 131.72 275.897 131.855L277.051 131.955C280.828 132.27 285.762 132.812 291.497 133.693C296.774 124.101 305.289 118.039 310.512 116.878ZM203.301 207.266C196.486 194.124 187.916 183.612 176.982 178.101C174.559 179.859 172.362 181.659 170.512 183.47C152.993 208.116 140.259 239.889 137.809 277.609C165.847 252.02 189.166 221.447 203.301 207.266Z" fill="#004F83"/>
<path d="M218.939 130.463L207.916 146.452C207.916 146.452 216.247 152.24 223.097 160.071C211.109 157.621 197.947 155.406 197.947 155.406L177.082 166.752L186.863 150.521C186.863 150.521 180.282 144.902 172.693 140.006C181.013 140.248 196.836 141.56 196.836 141.56L218.939 130.463V130.463ZM239.554 201.182C239.554 201.182 237.22 207.639 236.912 213.639C236.912 213.639 222.281 215.797 215.239 220.589C215.239 220.589 229.847 206.032 239.554 201.182Z" fill="#7AC142"/>
<path d="M338.123 200.534C339.75 200.137 340.965 200.072 341.873 200.137C341.6 199.391 341.096 198.272 340.188 197.168C338.896 195.603 337.015 194.43 337.015 194.43C338.227 196.299 338.261 198.88 338.123 200.534H338.123ZM324.924 207.193C326.812 205.893 328.536 204.816 330.101 203.939C329.816 203.262 329.374 202.285 328.712 201.104C327.459 198.858 324.189 196.9 324.189 196.9C325.539 200.897 325.251 204.95 324.924 207.193Z" fill="#FEFEFE"/>
<path d="M167.979 305.95C155.541 311.034 126.106 304.104 126.106 304.104C155.841 302.392 184.926 281.088 184.926 281.088C184.903 281.138 184.876 281.192 184.86 281.238C176.141 294.611 164.126 302.346 164.126 302.346C165.449 304.038 166.783 305.165 167.979 305.95Z" fill="#C4CDD3"/>
<path d="M316.244 128.535C316.244 128.535 308.933 122.804 300.637 131.692C309.525 115.492 314.66 124.781 316.244 128.535Z" fill="#7AC142"/>
<path d="M345.113 207.103C345.113 207.103 344.348 206.584 344.186 206.495C339.548 204.026 331.233 211.234 325.802 214.222C320.379 217.211 312.475 223.576 308.613 214.807C304.756 206.038 313.629 192.322 316.706 183.691C323.49 164.611 323.736 153.376 322.306 147.303C328.575 154.384 330.548 167.957 330.548 167.957C330.548 167.957 332.879 142.464 320.413 135.749C320.702 136.653 320.375 139.83 320.121 142.334C320.121 142.334 320.098 142.299 320.083 142.28C314.275 143.341 301.471 141.888 297.313 139.711C281.571 156.595 264.409 180.091 251.49 201.668C245.886 213.08 240.402 226.464 239.029 237.345C239.029 237.345 237.244 232.426 236.821 225.864C229.675 228.622 205.375 240.564 200.179 277.18C200.179 277.18 215.621 261.245 232.694 255.038C232.694 255.038 221.883 283.353 242.521 333.545C242.521 333.545 250.875 302.768 268.352 295.003C278.933 347.557 309.952 348.418 318.998 384.176C318.998 384.176 328.479 365.653 317.067 334.168C317.067 334.168 321.002 335.268 324.34 339.199C324.34 339.199 323.821 329.988 315.213 310.122C309.606 299.488 307.848 285.134 307.848 285.134C302.809 289.699 301.517 305.118 301.517 305.118C286.117 263.338 329.829 221.93 337.809 215.826C341.702 212.838 344.102 212.788 345.556 213.503C347.056 210.391 346.921 208.403 345.113 207.103" fill="#C4CDD3"/>
</svg>
